<?xml version="1.0" standalone="no"?>
 <!DOCTYPE svg PUBLIC "-//W3C//DTD SVG 1.1//EN" 
 "http://www.w3.org/Graphics/SVG/1.1/DTD/svg11.dtd"> 
<svg xmlns="http://www.w3.org/2000/svg" version="1.1" 
    width="29.7002cm" height="21.0007cm" viewBox="0 0 116930 82680 ">
<title>SVG Picture created as TS_kicad-PTH-drl_map.svg date 2019/02/20 21:18:23 </title>
  <desc>Picture generated by PCBNEW </desc>
<g style="fill:#000000; fill-opacity:1;stroke:#000000; stroke-opacity:1;
stroke-linecap:round; stroke-linejoin:round; "
 transform="translate(0 0) scale(1 1)">
</g>
<g style="fill:#000000; fill-opacity:0.0; 
stroke:#000000; stroke-width:-0.000393701; stroke-opacity:1; 
stroke-linecap:round; stroke-linejoin:round;">
</g>
<g style="fill:#000000; fill-opacity:0.0; 
stroke:#000000; stroke-width:39.3701; stroke-opacity:1; 
stroke-linecap:round; stroke-linejoin:round;">
<path d="M36220 19291
L36220 28346
" />
<path d="M47637 28346
L47637 19291
" />
<path d="M36220 28346
L47637 28346
" />
<path d="M47637 19291
L36220 19291
" />
</g>
<g style="fill:#000000; fill-opacity:0.0; 
stroke:#000000; stroke-width:78.7402; stroke-opacity:1; 
stroke-linecap:round; stroke-linejoin:round;">
<path d="M37881 20631
L38118 20868
" />
<path d="M38118 20631
L37881 20868
" />
<path d="M38381 25881
L38618 26118
" />
<path d="M38618 25881
L38381 26118
" />
<path d="M40381 24131
L40618 24368
" />
<path d="M40618 24131
L40381 24368
" />
<path d="M40881 25381
L41118 25618
" />
<path d="M41118 25381
L40881 25618
" />
<path d="M40881 27381
L41118 27618
" />
<path d="M41118 27381
L40881 27618
" />
<path d="M42381 22381
L42618 22618
" />
<path d="M42618 22381
L42381 22618
" />
<circle cx="42500" cy="21000" r="157.48" /> 
<circle cx="42500" cy="24000" r="157.48" /> 
<circle cx="37250" cy="23000" r="157.48" /> 
<circle cx="37250" cy="26000" r="157.48" /> 
<path d="M37250 20053
L37250 20446
" />
<path d="M37053 20250
L37446 20250
" />
<path d="M37250 27303
L37250 27696
" />
<path d="M37053 27500
L37446 27500
" />
<path d="M46500 20053
L46500 20446
" />
<path d="M46303 20250
L46696 20250
" />
<path d="M46500 27303
L46500 27696
" />
<path d="M46303 27500
L46696 27500
" />
<polyline fill="none;"
points="45194,22194
45194,21805
44805,21805
44805,22194
45194,22194
" /> 
<polyline fill="none;"
points="45194,24163
45194,23773
44805,23773
44805,24163
45194,24163
" /> 
<polyline fill="none;"
points="45194,26131
45194,25742
44805,25742
44805,26131
45194,26131
" /> 
</g>
<g style="fill:#000000; fill-opacity:0.0; 
stroke:#000000; stroke-width:118.11; stroke-opacity:1; 
stroke-linecap:round; stroke-linejoin:round;">
<path d="M37328 30199
L37328 29018
L37609 29018
L37778 29074
L37890 29187
L37947 29299
L38003 29524
L38003 29693
L37947 29918
L37890 30030
L37778 30143
L37609 30199
L37328 30199
" />
<path d="M38509 30199
L38509 29412
" />
<path d="M38509 29637
L38565 29524
L38622 29468
L38734 29412
L38847 29412
" />
<path d="M39240 30199
L39240 29412
" />
<path d="M39240 29018
L39184 29074
L39240 29131
L39296 29074
L39240 29018
L39240 29131
" />
<path d="M39971 30199
L39859 30143
L39803 30030
L39803 29018
" />
<path d="M40590 30199
L40478 30143
L40421 30030
L40421 29018
" />
<path d="M41940 30199
L41940 29018
L42334 29862
L42727 29018
L42727 30199
" />
<path d="M43796 30199
L43796 29580
L43740 29468
L43627 29412
L43402 29412
L43290 29468
" />
<path d="M43796 30143
L43683 30199
L43402 30199
L43290 30143
L43233 30030
L43233 29918
L43290 29805
L43402 29749
L43683 29749
L43796 29693
" />
<path d="M44358 29412
L44358 30593
" />
<path d="M44358 29468
L44471 29412
L44696 29412
L44808 29468
L44865 29524
L44921 29637
L44921 29974
L44865 30087
L44808 30143
L44696 30199
L44471 30199
L44358 30143
" />
<path d="M45427 30087
L45483 30143
L45427 30199
L45371 30143
L45427 30087
L45427 30199
" />
<path d="M45427 29468
L45483 29524
L45427 29580
L45371 29524
L45427 29468
L45427 29580
" />
<path d="M35964 32027
L36200 32263
" />
<path d="M36200 32027
L35964 32263
" />
<path d="M37553 31498
L37665 31498
L37778 31555
L37834 31611
L37890 31723
L37947 31948
L37947 32230
L37890 32455
L37834 32567
L37778 32623
L37665 32679
L37553 32679
L37440 32623
L37384 32567
L37328 32455
L37272 32230
L37272 31948
L37328 31723
L37384 31611
L37440 31555
L37553 31498
" />
<path d="M38453 32567
L38509 32623
L38453 32679
L38397 32623
L38453 32567
L38453 32679
" />
<path d="M39521 31498
L39296 31498
L39184 31555
L39128 31611
L39015 31780
L38959 32005
L38959 32455
L39015 32567
L39071 32623
L39184 32679
L39409 32679
L39521 32623
L39578 32567
L39634 32455
L39634 32173
L39578 32061
L39521 32005
L39409 31948
L39184 31948
L39071 32005
L39015 32061
L38959 32173
" />
<path d="M40365 31498
L40478 31498
L40590 31555
L40646 31611
L40703 31723
L40759 31948
L40759 32230
L40703 32455
L40646 32567
L40590 32623
L40478 32679
L40365 32679
L40253 32623
L40196 32567
L40140 32455
L40084 32230
L40084 31948
L40140 31723
L40196 31611
L40253 31555
L40365 31498
" />
<path d="M41265 32679
L41265 31892
" />
<path d="M41265 32005
L41321 31948
L41434 31892
L41602 31892
L41715 31948
L41771 32061
L41771 32679
" />
<path d="M41771 32061
L41827 31948
L41940 31892
L42109 31892
L42221 31948
L42277 32061
L42277 32679
" />
<path d="M42840 32679
L42840 31892
" />
<path d="M42840 32005
L42896 31948
L43008 31892
L43177 31892
L43290 31948
L43346 32061
L43346 32679
" />
<path d="M43346 32061
L43402 31948
L43515 31892
L43683 31892
L43796 31948
L43852 32061
L43852 32679
" />
<path d="M46158 31442
L45146 32961
" />
<path d="M47677 31498
L47789 31498
L47902 31555
L47958 31611
L48014 31723
L48070 31948
L48070 32230
L48014 32455
L47958 32567
L47902 32623
L47789 32679
L47677 32679
L47564 32623
L47508 32567
L47452 32455
L47395 32230
L47395 31948
L47452 31723
L47508 31611
L47564 31555
L47677 31498
" />
<path d="M48577 32567
L48633 32623
L48577 32679
L48520 32623
L48577 32567
L48577 32679
" />
<path d="M49364 31498
L49476 31498
L49589 31555
L49645 31611
L49701 31723
L49758 31948
L49758 32230
L49701 32455
L49645 32567
L49589 32623
L49476 32679
L49364 32679
L49251 32623
L49195 32567
L49139 32455
L49083 32230
L49083 31948
L49139 31723
L49195 31611
L49251 31555
L49364 31498
" />
<path d="M50208 31611
L50264 31555
L50376 31498
L50658 31498
L50770 31555
L50826 31611
L50883 31723
L50883 31836
L50826 32005
L50151 32679
L50883 32679
" />
<path d="M51895 31892
L51895 32679
" />
<path d="M51614 31442
L51332 32286
L52064 32286
" />
<path d="M52457 31498
L52457 31723
" />
<path d="M52907 31498
L52907 31723
" />
<path d="M54651 33129
L54595 33073
L54482 32904
L54426 32792
L54370 32623
L54313 32342
L54313 32117
L54370 31836
L54426 31667
L54482 31555
L54595 31386
L54651 31330
" />
<path d="M55607 31498
L55382 31498
L55269 31555
L55213 31611
L55101 31780
L55044 32005
L55044 32455
L55101 32567
L55157 32623
L55269 32679
L55494 32679
L55607 32623
L55663 32567
L55719 32455
L55719 32173
L55663 32061
L55607 32005
L55494 31948
L55269 31948
L55157 32005
L55101 32061
L55044 32173
" />
<path d="M57125 32679
L57125 31498
" />
<path d="M57632 32679
L57632 32061
L57575 31948
L57463 31892
L57294 31892
L57182 31948
L57125 32005
" />
<path d="M58363 32679
L58250 32623
L58194 32567
L58138 32455
L58138 32117
L58194 32005
L58250 31948
L58363 31892
L58532 31892
L58644 31948
L58700 32005
L58757 32117
L58757 32455
L58700 32567
L58644 32623
L58532 32679
L58363 32679
" />
<path d="M59431 32679
L59319 32623
L59263 32511
L59263 31498
" />
<path d="M60331 32623
L60219 32679
L59994 32679
L59881 32623
L59825 32511
L59825 32061
L59881 31948
L59994 31892
L60219 31892
L60331 31948
L60388 32061
L60388 32173
L59825 32286
" />
<path d="M60838 32623
L60950 32679
L61175 32679
L61287 32623
L61344 32511
L61344 32455
L61287 32342
L61175 32286
L61006 32286
L60894 32230
L60838 32117
L60838 32061
L60894 31948
L61006 31892
L61175 31892
L61287 31948
" />
<path d="M61737 33129
L61794 33073
L61906 32904
L61962 32792
L62019 32623
L62075 32342
L62075 32117
L62019 31836
L61962 31667
L61906 31555
L61794 31386
L61737 31330
" />
<circle cx="36043.3" cy="33704.7" r="157.48" /> 
<path d="M37553 33057
L37665 33057
L37778 33114
L37834 33170
L37890 33282
L37947 33507
L37947 33789
L37890 34014
L37834 34126
L37778 34182
L37665 34239
L37553 34239
L37440 34182
L37384 34126
L37328 34014
L37272 33789
L37272 33507
L37328 33282
L37384 33170
L37440 33114
L37553 33057
" />
<path d="M38453 34126
L38509 34182
L38453 34239
L38397 34182
L38453 34126
L38453 34239
" />
<path d="M39184 33564
L39071 33507
L39015 33451
L38959 33339
L38959 33282
L39015 33170
L39071 33114
L39184 33057
L39409 33057
L39521 33114
L39578 33170
L39634 33282
L39634 33339
L39578 33451
L39521 33507
L39409 33564
L39184 33564
L39071 33620
L39015 33676
L38959 33789
L38959 34014
L39015 34126
L39071 34182
L39184 34239
L39409 34239
L39521 34182
L39578 34126
L39634 34014
L39634 33789
L39578 33676
L39521 33620
L39409 33564
" />
<path d="M40365 33057
L40478 33057
L40590 33114
L40646 33170
L40703 33282
L40759 33507
L40759 33789
L40703 34014
L40646 34126
L40590 34182
L40478 34239
L40365 34239
L40253 34182
L40196 34126
L40140 34014
L40084 33789
L40084 33507
L40140 33282
L40196 33170
L40253 33114
L40365 33057
" />
<path d="M41265 34239
L41265 33451
" />
<path d="M41265 33564
L41321 33507
L41434 33451
L41602 33451
L41715 33507
L41771 33620
L41771 34239
" />
<path d="M41771 33620
L41827 33507
L41940 33451
L42109 33451
L42221 33507
L42277 33620
L42277 34239
" />
<path d="M42840 34239
L42840 33451
" />
<path d="M42840 33564
L42896 33507
L43008 33451
L43177 33451
L43290 33507
L43346 33620
L43346 34239
" />
<path d="M43346 33620
L43402 33507
L43515 33451
L43683 33451
L43796 33507
L43852 33620
L43852 34239
" />
<path d="M46158 33001
L45146 34520
" />
<path d="M47677 33057
L47789 33057
L47902 33114
L47958 33170
L48014 33282
L48070 33507
L48070 33789
L48014 34014
L47958 34126
L47902 34182
L47789 34239
L47677 34239
L47564 34182
L47508 34126
L47452 34014
L47395 33789
L47395 33507
L47452 33282
L47508 33170
L47564 33114
L47677 33057
" />
<path d="M48577 34126
L48633 34182
L48577 34239
L48520 34182
L48577 34126
L48577 34239
" />
<path d="M49364 33057
L49476 33057
L49589 33114
L49645 33170
L49701 33282
L49758 33507
L49758 33789
L49701 34014
L49645 34126
L49589 34182
L49476 34239
L49364 34239
L49251 34182
L49195 34126
L49139 34014
L49083 33789
L49083 33507
L49139 33282
L49195 33170
L49251 33114
L49364 33057
" />
<path d="M50151 33057
L50883 33057
L50489 33507
L50658 33507
L50770 33564
L50826 33620
L50883 33732
L50883 34014
L50826 34126
L50770 34182
L50658 34239
L50320 34239
L50208 34182
L50151 34126
" />
<path d="M52007 34239
L51332 34239
" />
<path d="M51670 34239
L51670 33057
L51557 33226
L51445 33339
L51332 33395
" />
<path d="M52457 33057
L52457 33282
" />
<path d="M52907 33057
L52907 33282
" />
<path d="M54651 34688
L54595 34632
L54482 34464
L54426 34351
L54370 34182
L54313 33901
L54313 33676
L54370 33395
L54426 33226
L54482 33114
L54595 32945
L54651 32889
" />
<path d="M55607 33451
L55607 34239
" />
<path d="M55326 33001
L55044 33845
L55776 33845
" />
<path d="M57125 34239
L57125 33057
" />
<path d="M57632 34239
L57632 33620
L57575 33507
L57463 33451
L57294 33451
L57182 33507
L57125 33564
" />
<path d="M58363 34239
L58250 34182
L58194 34126
L58138 34014
L58138 33676
L58194 33564
L58250 33507
L58363 33451
L58532 33451
L58644 33507
L58700 33564
L58757 33676
L58757 34014
L58700 34126
L58644 34182
L58532 34239
L58363 34239
" />
<path d="M59431 34239
L59319 34182
L59263 34070
L59263 33057
" />
<path d="M60331 34182
L60219 34239
L59994 34239
L59881 34182
L59825 34070
L59825 33620
L59881 33507
L59994 33451
L60219 33451
L60331 33507
L60388 33620
L60388 33732
L59825 33845
" />
<path d="M60838 34182
L60950 34239
L61175 34239
L61287 34182
L61344 34070
L61344 34014
L61287 33901
L61175 33845
L61006 33845
L60894 33789
L60838 33676
L60838 33620
L60894 33507
L61006 33451
L61175 33451
L61287 33507
" />
<path d="M61737 34688
L61794 34632
L61906 34464
L61962 34351
L62019 34182
L62075 33901
L62075 33676
L62019 33395
L61962 33226
L61906 33114
L61794 32945
L61737 32889
" />
<path d="M36003 35066
L36003 35460
" />
<path d="M35807 35263
L36200 35263
" />
<path d="M37947 35798
L37272 35798
" />
<path d="M37609 35798
L37609 34616
L37497 34785
L37384 34898
L37272 34954
" />
<path d="M38453 35685
L38509 35741
L38453 35798
L38397 35741
L38453 35685
L38453 35798
" />
<path d="M39240 34616
L39353 34616
L39465 34673
L39521 34729
L39578 34841
L39634 35066
L39634 35348
L39578 35573
L39521 35685
L39465 35741
L39353 35798
L39240 35798
L39128 35741
L39071 35685
L39015 35573
L38959 35348
L38959 35066
L39015 34841
L39071 34729
L39128 34673
L39240 34616
" />
<path d="M40365 34616
L40478 34616
L40590 34673
L40646 34729
L40703 34841
L40759 35066
L40759 35348
L40703 35573
L40646 35685
L40590 35741
L40478 35798
L40365 35798
L40253 35741
L40196 35685
L40140 35573
L40084 35348
L40084 35066
L40140 34841
L40196 34729
L40253 34673
L40365 34616
" />
<path d="M41265 35798
L41265 35010
" />
<path d="M41265 35123
L41321 35066
L41434 35010
L41602 35010
L41715 35066
L41771 35179
L41771 35798
" />
<path d="M41771 35179
L41827 35066
L41940 35010
L42109 35010
L42221 35066
L42277 35179
L42277 35798
" />
<path d="M42840 35798
L42840 35010
" />
<path d="M42840 35123
L42896 35066
L43008 35010
L43177 35010
L43290 35066
L43346 35179
L43346 35798
" />
<path d="M43346 35179
L43402 35066
L43515 35010
L43683 35010
L43796 35066
L43852 35179
L43852 35798
" />
<path d="M46158 34560
L45146 36079
" />
<path d="M47677 34616
L47789 34616
L47902 34673
L47958 34729
L48014 34841
L48070 35066
L48070 35348
L48014 35573
L47958 35685
L47902 35741
L47789 35798
L47677 35798
L47564 35741
L47508 35685
L47452 35573
L47395 35348
L47395 35066
L47452 34841
L47508 34729
L47564 34673
L47677 34616
" />
<path d="M48577 35685
L48633 35741
L48577 35798
L48520 35741
L48577 35685
L48577 35798
" />
<path d="M49364 34616
L49476 34616
L49589 34673
L49645 34729
L49701 34841
L49758 35066
L49758 35348
L49701 35573
L49645 35685
L49589 35741
L49476 35798
L49364 35798
L49251 35741
L49195 35685
L49139 35573
L49083 35348
L49083 35066
L49139 34841
L49195 34729
L49251 34673
L49364 34616
" />
<path d="M50151 34616
L50883 34616
L50489 35066
L50658 35066
L50770 35123
L50826 35179
L50883 35291
L50883 35573
L50826 35685
L50770 35741
L50658 35798
L50320 35798
L50208 35741
L50151 35685
" />
<path d="M51445 35798
L51670 35798
L51782 35741
L51839 35685
L51951 35516
L52007 35291
L52007 34841
L51951 34729
L51895 34673
L51782 34616
L51557 34616
L51445 34673
L51389 34729
L51332 34841
L51332 35123
L51389 35235
L51445 35291
L51557 35348
L51782 35348
L51895 35291
L51951 35235
L52007 35123
" />
<path d="M52457 34616
L52457 34841
" />
<path d="M52907 34616
L52907 34841
" />
<path d="M54651 36248
L54595 36191
L54482 36023
L54426 35910
L54370 35741
L54313 35460
L54313 35235
L54370 34954
L54426 34785
L54482 34673
L54595 34504
L54651 34448
" />
<path d="M55607 35010
L55607 35798
" />
<path d="M55326 34560
L55044 35404
L55776 35404
" />
<path d="M57125 35798
L57125 34616
" />
<path d="M57632 35798
L57632 35179
L57575 35066
L57463 35010
L57294 35010
L57182 35066
L57125 35123
" />
<path d="M58363 35798
L58250 35741
L58194 35685
L58138 35573
L58138 35235
L58194 35123
L58250 35066
L58363 35010
L58532 35010
L58644 35066
L58700 35123
L58757 35235
L58757 35573
L58700 35685
L58644 35741
L58532 35798
L58363 35798
" />
<path d="M59431 35798
L59319 35741
L59263 35629
L59263 34616
" />
<path d="M60331 35741
L60219 35798
L59994 35798
L59881 35741
L59825 35629
L59825 35179
L59881 35066
L59994 35010
L60219 35010
L60331 35066
L60388 35179
L60388 35291
L59825 35404
" />
<path d="M60838 35741
L60950 35798
L61175 35798
L61287 35741
L61344 35629
L61344 35573
L61287 35460
L61175 35404
L61006 35404
L60894 35348
L60838 35235
L60838 35179
L60894 35066
L61006 35010
L61175 35010
L61287 35066
" />
<path d="M61737 36248
L61794 36191
L61906 36023
L61962 35910
L62019 35741
L62075 35460
L62075 35235
L62019 34954
L61962 34785
L61906 34673
L61794 34504
L61737 34448
" />
<polyline fill="none;"
points="36120,37017
36120,36627
35730,36627
35730,37017
36120,37017
" /> 
<path d="M37947 37357
L37272 37357
" />
<path d="M37609 37357
L37609 36176
L37497 36344
L37384 36457
L37272 36513
" />
<path d="M38453 37244
L38509 37300
L38453 37357
L38397 37300
L38453 37244
L38453 37357
" />
<path d="M39521 36569
L39521 37357
" />
<path d="M39240 36119
L38959 36963
L39690 36963
" />
<path d="M40365 36176
L40478 36176
L40590 36232
L40646 36288
L40703 36401
L40759 36625
L40759 36907
L40703 37132
L40646 37244
L40590 37300
L40478 37357
L40365 37357
L40253 37300
L40196 37244
L40140 37132
L40084 36907
L40084 36625
L40140 36401
L40196 36288
L40253 36232
L40365 36176
" />
<path d="M41265 37357
L41265 36569
" />
<path d="M41265 36682
L41321 36625
L41434 36569
L41602 36569
L41715 36625
L41771 36738
L41771 37357
" />
<path d="M41771 36738
L41827 36625
L41940 36569
L42109 36569
L42221 36625
L42277 36738
L42277 37357
" />
<path d="M42840 37357
L42840 36569
" />
<path d="M42840 36682
L42896 36625
L43008 36569
L43177 36569
L43290 36625
L43346 36738
L43346 37357
" />
<path d="M43346 36738
L43402 36625
L43515 36569
L43683 36569
L43796 36625
L43852 36738
L43852 37357
" />
<path d="M46158 36119
L45146 37638
" />
<path d="M47677 36176
L47789 36176
L47902 36232
L47958 36288
L48014 36401
L48070 36625
L48070 36907
L48014 37132
L47958 37244
L47902 37300
L47789 37357
L47677 37357
L47564 37300
L47508 37244
L47452 37132
L47395 36907
L47395 36625
L47452 36401
L47508 36288
L47564 36232
L47677 36176
" />
<path d="M48577 37244
L48633 37300
L48577 37357
L48520 37300
L48577 37244
L48577 37357
" />
<path d="M49364 36176
L49476 36176
L49589 36232
L49645 36288
L49701 36401
L49758 36625
L49758 36907
L49701 37132
L49645 37244
L49589 37300
L49476 37357
L49364 37357
L49251 37300
L49195 37244
L49139 37132
L49083 36907
L49083 36625
L49139 36401
L49195 36288
L49251 36232
L49364 36176
" />
<path d="M50826 36176
L50264 36176
L50208 36738
L50264 36682
L50376 36625
L50658 36625
L50770 36682
L50826 36738
L50883 36850
L50883 37132
L50826 37244
L50770 37300
L50658 37357
L50376 37357
L50264 37300
L50208 37244
" />
<path d="M51951 36176
L51389 36176
L51332 36738
L51389 36682
L51501 36625
L51782 36625
L51895 36682
L51951 36738
L52007 36850
L52007 37132
L51951 37244
L51895 37300
L51782 37357
L51501 37357
L51389 37300
L51332 37244
" />
<path d="M52457 36176
L52457 36401
" />
<path d="M52907 36176
L52907 36401
" />
<path d="M54651 37807
L54595 37750
L54482 37582
L54426 37469
L54370 37300
L54313 37019
L54313 36794
L54370 36513
L54426 36344
L54482 36232
L54595 36063
L54651 36007
" />
<path d="M54988 36176
L55719 36176
L55326 36625
L55494 36625
L55607 36682
L55663 36738
L55719 36850
L55719 37132
L55663 37244
L55607 37300
L55494 37357
L55157 37357
L55044 37300
L54988 37244
" />
<path d="M57125 37357
L57125 36176
" />
<path d="M57632 37357
L57632 36738
L57575 36625
L57463 36569
L57294 36569
L57182 36625
L57125 36682
" />
<path d="M58363 37357
L58250 37300
L58194 37244
L58138 37132
L58138 36794
L58194 36682
L58250 36625
L58363 36569
L58532 36569
L58644 36625
L58700 36682
L58757 36794
L58757 37132
L58700 37244
L58644 37300
L58532 37357
L58363 37357
" />
<path d="M59431 37357
L59319 37300
L59263 37188
L59263 36176
" />
<path d="M60331 37300
L60219 37357
L59994 37357
L59881 37300
L59825 37188
L59825 36738
L59881 36625
L59994 36569
L60219 36569
L60331 36625
L60388 36738
L60388 36850
L59825 36963
" />
<path d="M60838 37300
L60950 37357
L61175 37357
L61287 37300
L61344 37188
L61344 37132
L61287 37019
L61175 36963
L61006 36963
L60894 36907
L60838 36794
L60838 36738
L60894 36625
L61006 36569
L61175 36569
L61287 36625
" />
<path d="M61737 37807
L61794 37750
L61906 37582
L61962 37469
L62019 37300
L62075 37019
L62075 36794
L62019 36513
L61962 36344
L61906 36232
L61794 36063
L61737 36007
" />
</g> 
</svg>
