<?xml version="1.0" standalone="no"?>
 <!DOCTYPE svg PUBLIC "-//W3C//DTD SVG 1.1//EN" 
 "http://www.w3.org/Graphics/SVG/1.1/DTD/svg11.dtd"> 
<svg xmlns="http://www.w3.org/2000/svg" version="1.1" 
    width="29.7002cm" height="21.0007cm" viewBox="0 0 116930 82680 ">
<title>SVG Picture created as TS_kicad-B.Mask.svg date 2019/02/22 21:23:29 </title>
  <desc>Picture generated by PCBNEW </desc>
<g style="fill:#000000; fill-opacity:1;stroke:#000000; stroke-opacity:1;
stroke-linecap:round; stroke-linejoin:round; "
 transform="translate(0 0) scale(1 1)">
</g>
<g style="fill:#000000; fill-opacity:0.0; 
stroke:#000000; stroke-width:-0.000393701; stroke-opacity:1; 
stroke-linecap:round; stroke-linejoin:round;">
</g>
<g style="fill:#000000; fill-opacity:0.0; 
stroke:#000000; stroke-width:0; stroke-opacity:1; 
stroke-linecap:round; stroke-linejoin:round;">
</g>
<g style="fill:#000000; fill-opacity:1.0; 
stroke:#000000; stroke-width:0; stroke-opacity:1; 
stroke-linecap:round; stroke-linejoin:round;">
<polyline style="fill-rule:evenodd;"
points="41205,23524
41214,23526
41223,23528
41232,23531
41241,23535
41249,23540
41256,23546
41263,23552
41270,23559
41275,23567
41280,23575
41284,23583
41287,23592
41290,23601
41291,23610
41291,23620
41291,23979
41291,23989
41290,23998
41287,24007
41284,24016
41280,24024
41275,24032
41270,24040
41263,24047
41256,24053
41249,24059
41241,24064
41232,24068
41223,24071
41214,24073
41205,24075
41195,24075
41004,24075
40994,24075
40985,24073
40976,24071
40967,24068
40958,24064
40950,24059
40943,24053
40936,24047
40929,24040
40924,24032
40919,24024
40915,24016
40912,24007
40909,23998
40908,23989
40908,23979
40908,23620
40908,23610
40909,23601
40912,23592
40915,23583
40919,23575
40924,23567
40929,23559
40936,23552
40943,23546
40950,23540
40958,23535
40967,23531
40976,23528
40985,23526
40994,23524
41004,23524
41195,23524
41205,23524
" /> 
<polyline style="fill-rule:evenodd;"
points="40467,23524
40476,23526
40485,23528
40494,23531
40503,23535
40511,23540
40518,23546
40525,23552
40531,23559
40537,23567
40542,23575
40546,23583
40549,23592
40551,23601
40553,23610
40553,23620
40553,23979
40553,23989
40551,23998
40549,24007
40546,24016
40542,24024
40537,24032
40531,24040
40525,24047
40518,24053
40511,24059
40503,24064
40494,24068
40485,24071
40476,24073
40467,24075
40457,24075
40265,24075
40256,24075
40247,24073
40237,24071
40229,24068
40220,24064
40212,24059
40204,24053
40197,24047
40191,24040
40186,24032
40181,24024
40177,24016
40174,24007
40171,23998
40170,23989
40169,23979
40169,23620
40170,23610
40171,23601
40174,23592
40177,23583
40181,23575
40186,23567
40191,23559
40197,23552
40204,23546
40212,23540
40220,23535
40229,23531
40237,23528
40247,23526
40256,23524
40265,23524
40457,23524
40467,23524
" /> 
<polyline style="fill-rule:evenodd;"
points="43584,23633
42915,23633
42915,23122
43584,23122
43584,23633
" /> 
<polyline style="fill-rule:evenodd;"
points="43584,22255
42915,22255
42915,21744
43584,21744
43584,22255
" /> 
<polyline style="fill-rule:evenodd;"
points="42035,24655
42035,24340
42389,24340
42389,24655
42035,24655
" /> 
<polyline style="fill-rule:evenodd;"
points="42035,23907
42035,23592
42389,23592
42389,23907
42035,23907
" /> 
<polyline style="fill-rule:evenodd;"
points="42822,24281
42822,23966
43177,23966
43177,24281
42822,24281
" /> 
<polyline style="fill-rule:evenodd;"
points="42989,26077
42998,26079
43007,26081
43016,26084
43024,26088
43032,26093
43040,26098
43047,26105
43053,26112
43059,26119
43064,26127
43068,26136
43071,26145
43073,26154
43075,26163
43075,26173
43075,26365
43075,26374
43073,26383
43071,26392
43068,26401
43064,26410
43059,26418
43053,26425
43047,26432
43040,26439
43032,26444
43024,26449
43016,26453
43007,26456
42998,26459
42989,26460
42979,26461
42620,26461
42610,26460
42601,26459
42592,26456
42583,26453
42575,26449
42567,26444
42559,26439
42552,26432
42546,26425
42540,26418
42535,26410
42531,26401
42528,26392
42526,26383
42524,26374
42524,26365
42524,26173
42524,26163
42526,26154
42528,26145
42531,26136
42535,26127
42540,26119
42546,26112
42552,26105
42559,26098
42567,26093
42575,26088
42583,26084
42592,26081
42601,26079
42610,26077
42620,26077
42979,26077
42989,26077
" /> 
<polyline style="fill-rule:evenodd;"
points="42989,25339
42998,25340
43007,25343
43016,25346
43024,25350
43032,25355
43040,25360
43047,25367
43053,25374
43059,25381
43064,25389
43068,25398
43071,25407
43073,25416
43075,25425
43075,25434
43075,25626
43075,25636
43073,25645
43071,25654
43068,25663
43064,25672
43059,25680
43053,25687
43047,25694
43040,25701
43032,25706
43024,25711
43016,25715
43007,25718
42998,25720
42989,25722
42979,25722
42620,25722
42610,25722
42601,25720
42592,25718
42583,25715
42575,25711
42567,25706
42559,25701
42552,25694
42546,25687
42540,25680
42535,25672
42531,25663
42528,25654
42526,25645
42524,25636
42524,25626
42524,25434
42524,25425
42526,25416
42528,25407
42531,25398
42535,25389
42540,25381
42546,25374
42552,25367
42559,25360
42567,25355
42575,25350
42583,25346
42592,25343
42601,25340
42610,25339
42620,25338
42979,25338
42989,25339
" /> 
<polyline style="fill-rule:evenodd;"
points="44791,21606
46208,21606
46208,22393
44791,22393
44791,21606
" /> 
</g>
<g style="fill:#000000; fill-opacity:1.0; 
stroke:#000000; stroke-width:787.402; stroke-opacity:1; 
stroke-linecap:round; stroke-linejoin:round;">
</g>
<g style="fill:#000000; fill-opacity:0.0; 
stroke:#000000; stroke-width:787.402; stroke-opacity:1; 
stroke-linecap:round; stroke-linejoin:round;">
<path d="M45814 23968
L45185 23968
" />
<path d="M45814 25937
L45185 25937
" />
</g>
<g style="fill:#000000; fill-opacity:0.0; 
stroke:#000000; stroke-width:0; stroke-opacity:1; 
stroke-linecap:round; stroke-linejoin:round;">
</g>
<g style="fill:#000000; fill-opacity:1.0; 
stroke:#000000; stroke-width:0; stroke-opacity:1; 
stroke-linecap:round; stroke-linejoin:round;">
<polyline style="fill-rule:evenodd;"
points="41427,24344
41427,24659
41072,24659
41072,24344
41427,24344
" /> 
<polyline style="fill-rule:evenodd;"
points="41427,25092
41427,25407
41072,25407
41072,25092
41427,25092
" /> 
<polyline style="fill-rule:evenodd;"
points="40639,24718
40639,25033
40285,25033
40285,24718
40639,24718
" /> 
<polyline style="fill-rule:evenodd;"
points="39689,24708
39698,24709
39707,24712
39716,24715
39724,24719
39732,24724
39740,24729
39747,24736
39753,24743
39759,24750
39764,24758
39768,24767
39771,24776
39773,24785
39775,24794
39775,24804
39775,24995
39775,25005
39773,25014
39771,25023
39768,25032
39764,25041
39759,25049
39753,25056
39747,25063
39740,25070
39732,25075
39724,25080
39716,25084
39707,25087
39698,25090
39689,25091
39679,25091
39320,25091
39310,25091
39301,25090
39292,25087
39283,25084
39275,25080
39267,25075
39259,25070
39252,25063
39246,25056
39240,25049
39235,25041
39231,25032
39228,25023
39226,25014
39224,25005
39224,24995
39224,24804
39224,24794
39226,24785
39228,24776
39231,24767
39235,24758
39240,24750
39246,24743
39252,24736
39259,24729
39267,24724
39275,24719
39283,24715
39292,24712
39301,24709
39310,24708
39320,24708
39679,24708
39689,24708
" /> 
<polyline style="fill-rule:evenodd;"
points="39689,23970
39698,23971
39707,23974
39716,23977
39724,23981
39732,23986
39740,23991
39747,23997
39753,24004
39759,24012
39764,24020
39768,24029
39771,24037
39773,24047
39775,24056
39775,24065
39775,24257
39775,24267
39773,24276
39771,24285
39768,24294
39764,24303
39759,24311
39753,24318
39747,24325
39740,24331
39732,24337
39724,24342
39716,24346
39707,24349
39698,24351
39689,24353
39679,24353
39320,24353
39310,24353
39301,24351
39292,24349
39283,24346
39275,24342
39267,24337
39259,24331
39252,24325
39246,24318
39240,24311
39235,24303
39231,24294
39228,24285
39226,24276
39224,24267
39224,24257
39224,24065
39224,24056
39226,24047
39228,24037
39231,24029
39235,24020
39240,24012
39246,24004
39252,23997
39259,23991
39267,23986
39275,23981
39283,23977
39292,23974
39301,23971
39310,23970
39320,23969
39679,23969
39689,23970
" /> 
<polyline style="fill-rule:evenodd;"
points="40467,22724
40476,22726
40485,22728
40494,22731
40503,22735
40511,22740
40518,22746
40525,22752
40531,22759
40537,22767
40542,22775
40546,22783
40549,22792
40551,22801
40553,22810
40553,22820
40553,23179
40553,23189
40551,23198
40549,23207
40546,23216
40542,23224
40537,23232
40531,23240
40525,23247
40518,23253
40511,23259
40503,23264
40494,23268
40485,23271
40476,23273
40467,23275
40457,23275
40265,23275
40256,23275
40247,23273
40237,23271
40229,23268
40220,23264
40212,23259
40204,23253
40197,23247
40191,23240
40186,23232
40181,23224
40177,23216
40174,23207
40171,23198
40170,23189
40169,23179
40169,22820
40170,22810
40171,22801
40174,22792
40177,22783
40181,22775
40186,22767
40191,22759
40197,22752
40204,22746
40212,22740
40220,22735
40229,22731
40237,22728
40247,22726
40256,22724
40265,22724
40457,22724
40467,22724
" /> 
<polyline style="fill-rule:evenodd;"
points="41205,22724
41214,22726
41223,22728
41232,22731
41241,22735
41249,22740
41256,22746
41263,22752
41270,22759
41275,22767
41280,22775
41284,22783
41287,22792
41290,22801
41291,22810
41291,22820
41291,23179
41291,23189
41290,23198
41287,23207
41284,23216
41280,23224
41275,23232
41270,23240
41263,23247
41256,23253
41249,23259
41241,23264
41232,23268
41223,23271
41214,23273
41205,23275
41195,23275
41004,23275
40994,23275
40985,23273
40976,23271
40967,23268
40958,23264
40950,23259
40943,23253
40936,23247
40929,23240
40924,23232
40919,23224
40915,23216
40912,23207
40909,23198
40908,23189
40908,23179
40908,22820
40908,22810
40909,22801
40912,22792
40915,22783
40919,22775
40924,22767
40929,22759
40936,22752
40943,22746
40950,22740
40958,22735
40967,22731
40976,22728
40985,22726
40994,22724
41004,22724
41195,22724
41205,22724
" /> 
<polyline style="fill-rule:evenodd;"
points="41867,22724
41876,22726
41885,22728
41894,22731
41903,22735
41911,22740
41918,22746
41925,22752
41931,22759
41937,22767
41942,22775
41946,22783
41949,22792
41951,22801
41953,22810
41953,22820
41953,23179
41953,23189
41951,23198
41949,23207
41946,23216
41942,23224
41937,23232
41931,23240
41925,23247
41918,23253
41911,23259
41903,23264
41894,23268
41885,23271
41876,23273
41867,23275
41857,23275
41665,23275
41656,23275
41647,23273
41637,23271
41629,23268
41620,23264
41612,23259
41604,23253
41597,23247
41591,23240
41586,23232
41581,23224
41577,23216
41574,23207
41571,23198
41570,23189
41569,23179
41569,22820
41570,22810
41571,22801
41574,22792
41577,22783
41581,22775
41586,22767
41591,22759
41597,22752
41604,22746
41612,22740
41620,22735
41629,22731
41637,22728
41647,22726
41656,22724
41665,22724
41857,22724
41867,22724
" /> 
<polyline style="fill-rule:evenodd;"
points="42605,22724
42614,22726
42623,22728
42632,22731
42641,22735
42649,22740
42656,22746
42663,22752
42670,22759
42675,22767
42680,22775
42684,22783
42687,22792
42690,22801
42691,22810
42691,22820
42691,23179
42691,23189
42690,23198
42687,23207
42684,23216
42680,23224
42675,23232
42670,23240
42663,23247
42656,23253
42649,23259
42641,23264
42632,23268
42623,23271
42614,23273
42605,23275
42595,23275
42404,23275
42394,23275
42385,23273
42376,23271
42367,23268
42358,23264
42350,23259
42343,23253
42336,23247
42329,23240
42324,23232
42319,23224
42315,23216
42312,23207
42309,23198
42308,23189
42308,23179
42308,22820
42308,22810
42309,22801
42312,22792
42315,22783
42319,22775
42324,22767
42329,22759
42336,22752
42343,22746
42350,22740
42358,22735
42367,22731
42376,22728
42385,22726
42394,22724
42404,22724
42595,22724
42605,22724
" /> 
<circle cx="37800" cy="20600" r="295.276" /> 
</g>
<g style="fill:#000000; fill-opacity:1.0; 
stroke:#000000; stroke-width:39.3701; stroke-opacity:1; 
stroke-linecap:round; stroke-linejoin:round;">
</g>
<g style="fill:#000000; fill-opacity:1.0; 
stroke:#000000; stroke-width:0; stroke-opacity:1; 
stroke-linecap:round; stroke-linejoin:round;">
<circle cx="46500" cy="27400" r="295.276" /> 
</g>
<g style="fill:#000000; fill-opacity:1.0; 
stroke:#000000; stroke-width:39.3701; stroke-opacity:1; 
stroke-linecap:round; stroke-linejoin:round;">
</g>
<g style="fill:#000000; fill-opacity:1.0; 
stroke:#000000; stroke-width:0; stroke-opacity:1; 
stroke-linecap:round; stroke-linejoin:round;">
<circle cx="46500" cy="20600" r="295.276" /> 
</g>
<g style="fill:#000000; fill-opacity:1.0; 
stroke:#000000; stroke-width:39.3701; stroke-opacity:1; 
stroke-linecap:round; stroke-linejoin:round;">
</g>
<g style="fill:#000000; fill-opacity:1.0; 
stroke:#000000; stroke-width:0; stroke-opacity:1; 
stroke-linecap:round; stroke-linejoin:round;">
<circle cx="37800" cy="27400" r="295.276" /> 
</g>
<g style="fill:#000000; fill-opacity:1.0; 
stroke:#000000; stroke-width:39.3701; stroke-opacity:1; 
stroke-linecap:round; stroke-linejoin:round;">
</g>
<g style="fill:#000000; fill-opacity:1.0; 
stroke:#000000; stroke-width:0; stroke-opacity:1; 
stroke-linecap:round; stroke-linejoin:round;">
<circle cx="40500" cy="27500" r="295.276" /> 
</g>
<g style="fill:#000000; fill-opacity:1.0; 
stroke:#000000; stroke-width:39.3701; stroke-opacity:1; 
stroke-linecap:round; stroke-linejoin:round;">
</g>
<g style="fill:#000000; fill-opacity:1.0; 
stroke:#000000; stroke-width:0; stroke-opacity:1; 
stroke-linecap:round; stroke-linejoin:round;">
<circle cx="38500" cy="20700" r="295.276" /> 
</g>
<g style="fill:#000000; fill-opacity:1.0; 
stroke:#000000; stroke-width:39.3701; stroke-opacity:1; 
stroke-linecap:round; stroke-linejoin:round;">
</g>
<g style="fill:#000000; fill-opacity:1.0; 
stroke:#000000; stroke-width:0; stroke-opacity:1; 
stroke-linecap:round; stroke-linejoin:round;">
<circle cx="40800" cy="21500" r="196.85" /> 
</g>
<g style="fill:#000000; fill-opacity:1.0; 
stroke:#000000; stroke-width:39.3701; stroke-opacity:1; 
stroke-linecap:round; stroke-linejoin:round;">
</g> 
</svg>
