<?xml version="1.0" encoding="UTF-8" standalone="no"?>
<svg
   xmlns:dc="http://purl.org/dc/elements/1.1/"
   xmlns:cc="http://creativecommons.org/ns#"
   xmlns:rdf="http://www.w3.org/1999/02/22-rdf-syntax-ns#"
   xmlns:svg="http://www.w3.org/2000/svg"
   xmlns="http://www.w3.org/2000/svg"
   xmlns:sodipodi="http://sodipodi.sourceforge.net/DTD/sodipodi-0.dtd"
   xmlns:inkscape="http://www.inkscape.org/namespaces/inkscape"
   version="1.1"
   width="2.5886927cm"
   height="2.0885673cm"
   viewBox="0 0 10191.711 8222.7136"
   id="svg4396"
   sodipodi:docname="TS_kicad-B.Cu.svg"
   inkscape:version="0.92.3 (2405546, 2018-03-11)">
  <metadata
     id="metadata4402">
    <rdf:RDF>
      <cc:Work
         rdf:about="">
        <dc:format>image/svg+xml</dc:format>
        <dc:type
           rdf:resource="http://purl.org/dc/dcmitype/StillImage" />
        <dc:title>SVG Picture created as TS_kicad-B.Cu.svg date 2019/02/22 20:05:08 </dc:title>
      </cc:Work>
    </rdf:RDF>
  </metadata>
  <defs
     id="defs4400" />
  <sodipodi:namedview
     pagecolor="#ffffff"
     bordercolor="#666666"
     borderopacity="1"
     objecttolerance="10"
     gridtolerance="10"
     guidetolerance="10"
     inkscape:pageopacity="0"
     inkscape:pageshadow="2"
     inkscape:window-width="1920"
     inkscape:window-height="1015"
     id="namedview4398"
     showgrid="false"
     fit-margin-top="0"
     fit-margin-left="0"
     fit-margin-right="0"
     fit-margin-bottom="0"
     inkscape:zoom="2.4836814"
     inkscape:cx="-18.768681"
     inkscape:cy="-15.064883"
     inkscape:window-x="0"
     inkscape:window-y="0"
     inkscape:window-maximized="1"
     inkscape:current-layer="svg4396" />
  <title
     id="title4140">SVG Picture created as TS_kicad-B.Cu.svg date 2019/02/22 20:05:08 </title>
  <desc
     id="desc4142">Picture generated by PCBNEW </desc>
  <g
     style="fill:#000000;fill-opacity:1;stroke:#000000;stroke-linecap:round;stroke-linejoin:round;stroke-opacity:1"
     id="g4144"
     transform="translate(-37227,-19904)" />
  <g
     style="fill:#000000;fill-opacity:0;stroke:#000000;stroke-width:-0.0003937;stroke-linecap:round;stroke-linejoin:round;stroke-opacity:1"
     id="g4146"
     transform="translate(-37227,-19904)" />
  <g
     style="fill:#000000;fill-opacity:1;stroke:#000000;stroke-width:39.37009811;stroke-linecap:round;stroke-linejoin:round;stroke-opacity:1"
     id="g4150"
     transform="matrix(0.68099243,0,0,0.64689888,-23744.146,-11427.031)">
    <rect
       x="34801.699"
       y="17671.4"
       width="14926.6"
       height="12671.6"
       rx="0"
       id="rect4148" />
  </g>
  <g
     style="fill:#ffffff;fill-opacity:1;stroke:#ffffff;stroke-width:39.37009811;stroke-linecap:round;stroke-linejoin:round;stroke-opacity:1"
     id="g4152"
     transform="translate(-37227,-19904)" />
  <g
     style="fill:#ffffff;fill-opacity:1;stroke:#ffffff;stroke-width:0;stroke-linecap:round;stroke-linejoin:round;stroke-opacity:1"
     id="g4174"
     transform="translate(-37227,-19904)">
    <polyline
       style="fill-rule:evenodd"
       points="41205,23524 41214,23526 41223,23528 41232,23531 41241,23535 41249,23540 41256,23546 41263,23552 41270,23559 41275,23567 41280,23575 41284,23583 41287,23592 41290,23601 41291,23610 41291,23620 41291,23979 41291,23989 41290,23998 41287,24007 41284,24016 41280,24024 41275,24032 41270,24040 41263,24047 41256,24053 41249,24059 41241,24064 41232,24068 41223,24071 41214,24073 41205,24075 41195,24075 41004,24075 40994,24075 40985,24073 40976,24071 40967,24068 40958,24064 40950,24059 40943,24053 40936,24047 40929,24040 40924,24032 40919,24024 40915,24016 40912,24007 40909,23998 40908,23989 40908,23979 40908,23620 40908,23610 40909,23601 40912,23592 40915,23583 40919,23575 40924,23567 40929,23559 40936,23552 40943,23546 40950,23540 40958,23535 40967,23531 40976,23528 40985,23526 40994,23524 41004,23524 41195,23524 41205,23524 "
       id="polyline4154" />
    <polyline
       style="fill-rule:evenodd"
       points="40467,23524 40476,23526 40485,23528 40494,23531 40503,23535 40511,23540 40518,23546 40525,23552 40531,23559 40537,23567 40542,23575 40546,23583 40549,23592 40551,23601 40553,23610 40553,23620 40553,23979 40553,23989 40551,23998 40549,24007 40546,24016 40542,24024 40537,24032 40531,24040 40525,24047 40518,24053 40511,24059 40503,24064 40494,24068 40485,24071 40476,24073 40467,24075 40457,24075 40265,24075 40256,24075 40247,24073 40237,24071 40229,24068 40220,24064 40212,24059 40204,24053 40197,24047 40191,24040 40186,24032 40181,24024 40177,24016 40174,24007 40171,23998 40170,23989 40169,23979 40169,23620 40170,23610 40171,23601 40174,23592 40177,23583 40181,23575 40186,23567 40191,23559 40197,23552 40204,23546 40212,23540 40220,23535 40229,23531 40237,23528 40247,23526 40256,23524 40265,23524 40457,23524 40467,23524 "
       id="polyline4156" />
    <polyline
       style="fill-rule:evenodd"
       points="43584,23633 42915,23633 42915,23122 43584,23122 43584,23633 "
       id="polyline4158" />
    <polyline
       style="fill-rule:evenodd"
       points="43584,22255 42915,22255 42915,21744 43584,21744 43584,22255 "
       id="polyline4160" />
    <polyline
       style="fill-rule:evenodd"
       points="42035,24655 42035,24340 42389,24340 42389,24655 42035,24655 "
       id="polyline4162" />
    <polyline
       style="fill-rule:evenodd"
       points="42035,23907 42035,23592 42389,23592 42389,23907 42035,23907 "
       id="polyline4164" />
    <polyline
       style="fill-rule:evenodd"
       points="42822,24281 42822,23966 43177,23966 43177,24281 42822,24281 "
       id="polyline4166" />
    <polyline
       style="fill-rule:evenodd"
       points="42989,26077 42998,26079 43007,26081 43016,26084 43024,26088 43032,26093 43040,26098 43047,26105 43053,26112 43059,26119 43064,26127 43068,26136 43071,26145 43073,26154 43075,26163 43075,26173 43075,26365 43075,26374 43073,26383 43071,26392 43068,26401 43064,26410 43059,26418 43053,26425 43047,26432 43040,26439 43032,26444 43024,26449 43016,26453 43007,26456 42998,26459 42989,26460 42979,26461 42620,26461 42610,26460 42601,26459 42592,26456 42583,26453 42575,26449 42567,26444 42559,26439 42552,26432 42546,26425 42540,26418 42535,26410 42531,26401 42528,26392 42526,26383 42524,26374 42524,26365 42524,26173 42524,26163 42526,26154 42528,26145 42531,26136 42535,26127 42540,26119 42546,26112 42552,26105 42559,26098 42567,26093 42575,26088 42583,26084 42592,26081 42601,26079 42610,26077 42620,26077 42979,26077 42989,26077 "
       id="polyline4168" />
    <polyline
       style="fill-rule:evenodd"
       points="42989,25339 42998,25340 43007,25343 43016,25346 43024,25350 43032,25355 43040,25360 43047,25367 43053,25374 43059,25381 43064,25389 43068,25398 43071,25407 43073,25416 43075,25425 43075,25434 43075,25626 43075,25636 43073,25645 43071,25654 43068,25663 43064,25672 43059,25680 43053,25687 43047,25694 43040,25701 43032,25706 43024,25711 43016,25715 43007,25718 42998,25720 42989,25722 42979,25722 42620,25722 42610,25722 42601,25720 42592,25718 42583,25715 42575,25711 42567,25706 42559,25701 42552,25694 42546,25687 42540,25680 42535,25672 42531,25663 42528,25654 42526,25645 42524,25636 42524,25626 42524,25434 42524,25425 42526,25416 42528,25407 42531,25398 42535,25389 42540,25381 42546,25374 42552,25367 42559,25360 42567,25355 42575,25350 42583,25346 42592,25343 42601,25340 42610,25339 42620,25338 42979,25338 42989,25339 "
       id="polyline4170" />
    <polyline
       style="fill-rule:evenodd"
       points="44791,21606 46208,21606 46208,22393 44791,22393 44791,21606 "
       id="polyline4172" />
  </g>
  <g
     style="fill:#ffffff;fill-opacity:1;stroke:#ffffff;stroke-width:787.40197754;stroke-linecap:round;stroke-linejoin:round;stroke-opacity:1"
     id="g4176"
     transform="translate(-37227,-19904)" />
  <g
     style="fill:#ffffff;fill-opacity:0;stroke:#ffffff;stroke-width:787.40197754;stroke-linecap:round;stroke-linejoin:round;stroke-opacity:1"
     id="g4182"
     transform="translate(-37227,-19904)">
    <path
       d="m 45814,23968 h -629"
       id="path4178"
       inkscape:connector-curvature="0" />
    <path
       d="m 45814,25937 h -629"
       id="path4180"
       inkscape:connector-curvature="0" />
  </g>
  <g
     style="fill:#ffffff;fill-opacity:0;stroke:#ffffff;stroke-width:0;stroke-linecap:round;stroke-linejoin:round;stroke-opacity:1"
     id="g4184"
     transform="translate(-37227,-19904)" />
  <g
     style="fill:#ffffff;fill-opacity:1;stroke:#ffffff;stroke-width:0;stroke-linecap:round;stroke-linejoin:round;stroke-opacity:1"
     id="g4206"
     transform="translate(-37227,-19904)">
    <polyline
       style="fill-rule:evenodd"
       points="41427,24344 41427,24659 41072,24659 41072,24344 41427,24344 "
       id="polyline4186" />
    <polyline
       style="fill-rule:evenodd"
       points="41427,25092 41427,25407 41072,25407 41072,25092 41427,25092 "
       id="polyline4188" />
    <polyline
       style="fill-rule:evenodd"
       points="40639,24718 40639,25033 40285,25033 40285,24718 40639,24718 "
       id="polyline4190" />
    <polyline
       style="fill-rule:evenodd"
       points="39689,24708 39698,24709 39707,24712 39716,24715 39724,24719 39732,24724 39740,24729 39747,24736 39753,24743 39759,24750 39764,24758 39768,24767 39771,24776 39773,24785 39775,24794 39775,24804 39775,24995 39775,25005 39773,25014 39771,25023 39768,25032 39764,25041 39759,25049 39753,25056 39747,25063 39740,25070 39732,25075 39724,25080 39716,25084 39707,25087 39698,25090 39689,25091 39679,25091 39320,25091 39310,25091 39301,25090 39292,25087 39283,25084 39275,25080 39267,25075 39259,25070 39252,25063 39246,25056 39240,25049 39235,25041 39231,25032 39228,25023 39226,25014 39224,25005 39224,24995 39224,24804 39224,24794 39226,24785 39228,24776 39231,24767 39235,24758 39240,24750 39246,24743 39252,24736 39259,24729 39267,24724 39275,24719 39283,24715 39292,24712 39301,24709 39310,24708 39320,24708 39679,24708 39689,24708 "
       id="polyline4192" />
    <polyline
       style="fill-rule:evenodd"
       points="39689,23970 39698,23971 39707,23974 39716,23977 39724,23981 39732,23986 39740,23991 39747,23997 39753,24004 39759,24012 39764,24020 39768,24029 39771,24037 39773,24047 39775,24056 39775,24065 39775,24257 39775,24267 39773,24276 39771,24285 39768,24294 39764,24303 39759,24311 39753,24318 39747,24325 39740,24331 39732,24337 39724,24342 39716,24346 39707,24349 39698,24351 39689,24353 39679,24353 39320,24353 39310,24353 39301,24351 39292,24349 39283,24346 39275,24342 39267,24337 39259,24331 39252,24325 39246,24318 39240,24311 39235,24303 39231,24294 39228,24285 39226,24276 39224,24267 39224,24257 39224,24065 39224,24056 39226,24047 39228,24037 39231,24029 39235,24020 39240,24012 39246,24004 39252,23997 39259,23991 39267,23986 39275,23981 39283,23977 39292,23974 39301,23971 39310,23970 39320,23969 39679,23969 39689,23970 "
       id="polyline4194" />
    <polyline
       style="fill-rule:evenodd"
       points="40467,22724 40476,22726 40485,22728 40494,22731 40503,22735 40511,22740 40518,22746 40525,22752 40531,22759 40537,22767 40542,22775 40546,22783 40549,22792 40551,22801 40553,22810 40553,22820 40553,23179 40553,23189 40551,23198 40549,23207 40546,23216 40542,23224 40537,23232 40531,23240 40525,23247 40518,23253 40511,23259 40503,23264 40494,23268 40485,23271 40476,23273 40467,23275 40457,23275 40265,23275 40256,23275 40247,23273 40237,23271 40229,23268 40220,23264 40212,23259 40204,23253 40197,23247 40191,23240 40186,23232 40181,23224 40177,23216 40174,23207 40171,23198 40170,23189 40169,23179 40169,22820 40170,22810 40171,22801 40174,22792 40177,22783 40181,22775 40186,22767 40191,22759 40197,22752 40204,22746 40212,22740 40220,22735 40229,22731 40237,22728 40247,22726 40256,22724 40265,22724 40457,22724 40467,22724 "
       id="polyline4196" />
    <polyline
       style="fill-rule:evenodd"
       points="41205,22724 41214,22726 41223,22728 41232,22731 41241,22735 41249,22740 41256,22746 41263,22752 41270,22759 41275,22767 41280,22775 41284,22783 41287,22792 41290,22801 41291,22810 41291,22820 41291,23179 41291,23189 41290,23198 41287,23207 41284,23216 41280,23224 41275,23232 41270,23240 41263,23247 41256,23253 41249,23259 41241,23264 41232,23268 41223,23271 41214,23273 41205,23275 41195,23275 41004,23275 40994,23275 40985,23273 40976,23271 40967,23268 40958,23264 40950,23259 40943,23253 40936,23247 40929,23240 40924,23232 40919,23224 40915,23216 40912,23207 40909,23198 40908,23189 40908,23179 40908,22820 40908,22810 40909,22801 40912,22792 40915,22783 40919,22775 40924,22767 40929,22759 40936,22752 40943,22746 40950,22740 40958,22735 40967,22731 40976,22728 40985,22726 40994,22724 41004,22724 41195,22724 41205,22724 "
       id="polyline4198" />
    <polyline
       style="fill-rule:evenodd"
       points="41867,22724 41876,22726 41885,22728 41894,22731 41903,22735 41911,22740 41918,22746 41925,22752 41931,22759 41937,22767 41942,22775 41946,22783 41949,22792 41951,22801 41953,22810 41953,22820 41953,23179 41953,23189 41951,23198 41949,23207 41946,23216 41942,23224 41937,23232 41931,23240 41925,23247 41918,23253 41911,23259 41903,23264 41894,23268 41885,23271 41876,23273 41867,23275 41857,23275 41665,23275 41656,23275 41647,23273 41637,23271 41629,23268 41620,23264 41612,23259 41604,23253 41597,23247 41591,23240 41586,23232 41581,23224 41577,23216 41574,23207 41571,23198 41570,23189 41569,23179 41569,22820 41570,22810 41571,22801 41574,22792 41577,22783 41581,22775 41586,22767 41591,22759 41597,22752 41604,22746 41612,22740 41620,22735 41629,22731 41637,22728 41647,22726 41656,22724 41665,22724 41857,22724 41867,22724 "
       id="polyline4200" />
    <polyline
       style="fill-rule:evenodd"
       points="42605,22724 42614,22726 42623,22728 42632,22731 42641,22735 42649,22740 42656,22746 42663,22752 42670,22759 42675,22767 42680,22775 42684,22783 42687,22792 42690,22801 42691,22810 42691,22820 42691,23179 42691,23189 42690,23198 42687,23207 42684,23216 42680,23224 42675,23232 42670,23240 42663,23247 42656,23253 42649,23259 42641,23264 42632,23268 42623,23271 42614,23273 42605,23275 42595,23275 42404,23275 42394,23275 42385,23273 42376,23271 42367,23268 42358,23264 42350,23259 42343,23253 42336,23247 42329,23240 42324,23232 42319,23224 42315,23216 42312,23207 42309,23198 42308,23189 42308,23179 42308,22820 42308,22810 42309,22801 42312,22792 42315,22783 42319,22775 42324,22767 42329,22759 42336,22752 42343,22746 42350,22740 42358,22735 42367,22731 42376,22728 42385,22726 42394,22724 42404,22724 42595,22724 42605,22724 "
       id="polyline4202" />
    <circle
       cx="37800"
       cy="20600"
       r="295.276"
       id="circle4204" />
  </g>
  <g
     style="fill:#ffffff;fill-opacity:1;stroke:#ffffff;stroke-width:39.37009811;stroke-linecap:round;stroke-linejoin:round;stroke-opacity:1"
     id="g4208"
     transform="translate(-37227,-19904)" />
  <g
     style="fill:#ffffff;fill-opacity:1;stroke:#ffffff;stroke-width:0;stroke-linecap:round;stroke-linejoin:round;stroke-opacity:1"
     id="g4212"
     transform="translate(-37227,-19904)">
    <circle
       cx="46500"
       cy="27400"
       r="295.276"
       id="circle4210" />
  </g>
  <g
     style="fill:#ffffff;fill-opacity:1;stroke:#ffffff;stroke-width:39.37009811;stroke-linecap:round;stroke-linejoin:round;stroke-opacity:1"
     id="g4214"
     transform="translate(-37227,-19904)" />
  <g
     style="fill:#ffffff;fill-opacity:1;stroke:#ffffff;stroke-width:0;stroke-linecap:round;stroke-linejoin:round;stroke-opacity:1"
     id="g4218"
     transform="translate(-37227,-19904)">
    <circle
       cx="46500"
       cy="20600"
       r="295.276"
       id="circle4216" />
  </g>
  <g
     style="fill:#ffffff;fill-opacity:1;stroke:#ffffff;stroke-width:39.37009811;stroke-linecap:round;stroke-linejoin:round;stroke-opacity:1"
     id="g4220"
     transform="translate(-37227,-19904)" />
  <g
     style="fill:#ffffff;fill-opacity:1;stroke:#ffffff;stroke-width:0;stroke-linecap:round;stroke-linejoin:round;stroke-opacity:1"
     id="g4224"
     transform="translate(-37227,-19904)">
    <circle
       cx="37800"
       cy="27400"
       r="295.276"
       id="circle4222" />
  </g>
  <g
     style="fill:#ffffff;fill-opacity:1;stroke:#ffffff;stroke-width:39.37009811;stroke-linecap:round;stroke-linejoin:round;stroke-opacity:1"
     id="g4226"
     transform="translate(-37227,-19904)" />
  <g
     style="fill:#ffffff;fill-opacity:1;stroke:#ffffff;stroke-width:0;stroke-linecap:round;stroke-linejoin:round;stroke-opacity:1"
     id="g4230"
     transform="translate(-37227,-19904)">
    <circle
       cx="40500"
       cy="27500"
       r="295.276"
       id="circle4228" />
  </g>
  <g
     style="fill:#ffffff;fill-opacity:1;stroke:#ffffff;stroke-width:39.37009811;stroke-linecap:round;stroke-linejoin:round;stroke-opacity:1"
     id="g4232"
     transform="translate(-37227,-19904)" />
  <g
     style="fill:#ffffff;fill-opacity:1;stroke:#ffffff;stroke-width:0;stroke-linecap:round;stroke-linejoin:round;stroke-opacity:1"
     id="g4236"
     transform="translate(-37227,-19904)">
    <circle
       cx="38500"
       cy="20700"
       r="295.276"
       id="circle4234" />
  </g>
  <g
     style="fill:#ffffff;fill-opacity:1;stroke:#ffffff;stroke-width:39.37009811;stroke-linecap:round;stroke-linejoin:round;stroke-opacity:1"
     id="g4238"
     transform="translate(-37227,-19904)" />
  <g
     style="fill:#ffffff;fill-opacity:1;stroke:#ffffff;stroke-width:0;stroke-linecap:round;stroke-linejoin:round;stroke-opacity:1"
     id="g4242"
     transform="translate(-37227,-19904)">
    <circle
       cx="40800"
       cy="21500"
       r="196.85001"
       id="circle4240" />
  </g>
  <g
     style="fill:#ffffff;fill-opacity:1;stroke:#ffffff;stroke-width:39.37009811;stroke-linecap:round;stroke-linejoin:round;stroke-opacity:1"
     id="g4244"
     transform="translate(-37227,-19904)" />
  <g
     style="fill:#ffffff;fill-opacity:1;stroke:#ffffff;stroke-width:157.47999573;stroke-linecap:round;stroke-linejoin:round;stroke-opacity:1"
     id="g4246"
     transform="translate(-37227,-19904)" />
  <g
     style="fill:#ffffff;fill-opacity:0;stroke:#ffffff;stroke-width:157.47999573;stroke-linecap:round;stroke-linejoin:round;stroke-opacity:1"
     id="g4272"
     transform="translate(-37227,-19904)">
    <path
       d="M 45500,22000 H 43250"
       id="path4248"
       inkscape:connector-curvature="0" />
    <path
       d="m 40438,24900 24,-25"
       id="path4250"
       inkscape:connector-curvature="0" />
    <path
       d="m 39500,24900 h 938"
       id="path4252"
       inkscape:connector-curvature="0" />
    <path
       d="m 42208,24501 4,-3"
       id="path4254"
       inkscape:connector-curvature="0" />
    <path
       d="m 41500,23000 h 261"
       id="path4256"
       inkscape:connector-curvature="0" />
    <path
       d="m 41119,23000 h 381"
       id="path4258"
       inkscape:connector-curvature="0" />
    <path
       d="m 41750,24250 v 251"
       id="path4260"
       inkscape:connector-curvature="0" />
    <path
       d="m 41500,24000 250,250"
       id="path4262"
       inkscape:connector-curvature="0" />
    <path
       d="m 41250,24501 h 500"
       id="path4264"
       inkscape:connector-curvature="0" />
    <path
       d="m 41750,24501 h 458"
       id="path4266"
       inkscape:connector-curvature="0" />
    <path
       d="m 39500,22800 1300,-1300"
       id="path4268"
       inkscape:connector-curvature="0" />
    <path
       d="M 39500,24161 V 22800"
       id="path4270"
       inkscape:connector-curvature="0" />
  </g>
  <g
     style="fill:#ffffff;fill-opacity:0;stroke:#ffffff;stroke-width:236.22000122;stroke-linecap:round;stroke-linejoin:round;stroke-opacity:1"
     id="g4278"
     transform="translate(-37227,-19904)">
    <path
       d="M 40500,27500 H 38600"
       id="path4274"
       inkscape:connector-curvature="0" />
    <path
       d="m 38600,27500 -300,-300"
       id="path4276"
       inkscape:connector-curvature="0" />
  </g>
  <g
     style="fill:#ffffff;fill-opacity:0;stroke:#ffffff;stroke-width:157.47999573;stroke-linecap:round;stroke-linejoin:round;stroke-opacity:1"
     id="g4282"
     transform="translate(-37227,-19904)">
    <path
       d="m 38300,20900 200,-200"
       id="path4280"
       inkscape:connector-curvature="0" />
  </g>
  <g
     style="fill:#ffffff;fill-opacity:0;stroke:#ffffff;stroke-width:236.22000122;stroke-linecap:round;stroke-linejoin:round;stroke-opacity:1"
     id="g4286"
     transform="translate(-37227,-19904)">
    <path
       d="M 38300,27200 V 20900"
       id="path4284"
       inkscape:connector-curvature="0" />
  </g>
  <g
     style="fill:#ffffff;fill-opacity:0;stroke:#ffffff;stroke-width:157.47999573;stroke-linecap:round;stroke-linejoin:round;stroke-opacity:1"
     id="g4298"
     transform="translate(-37227,-19904)">
    <path
       d="m 41500,23800 v 200"
       id="path4288"
       inkscape:connector-curvature="0" />
    <path
       d="m 41500,23800 h -400"
       id="path4290"
       inkscape:connector-curvature="0" />
    <path
       d="m 41500,23000 v 800"
       id="path4292"
       inkscape:connector-curvature="0" />
    <path
       d="m 42877,23377 -377,-377"
       id="path4294"
       inkscape:connector-curvature="0" />
    <path
       d="m 43250,23377 h -373"
       id="path4296"
       inkscape:connector-curvature="0" />
  </g>
  <g
     style="fill:#ffffff;fill-opacity:0;stroke:#ffffff;stroke-width:118.11000061;stroke-linecap:round;stroke-linejoin:round;stroke-opacity:1"
     id="g4302"
     transform="translate(-37227,-19904)">
    <path
       d="m 42212,23750 v 62"
       id="path4300"
       inkscape:connector-curvature="0" />
  </g>
  <g
     style="fill:#ffffff;fill-opacity:0;stroke:#ffffff;stroke-width:78.74019623;stroke-linecap:round;stroke-linejoin:round;stroke-opacity:1"
     id="g4316"
     transform="translate(-37227,-19904)">
    <path
       d="m 42212,23812 388,388"
       id="path4304"
       inkscape:connector-curvature="0" />
    <path
       d="m 42600,24200 v 700"
       id="path4306"
       inkscape:connector-curvature="0" />
    <path
       d="M 42250,25250 H 41250"
       id="path4308"
       inkscape:connector-curvature="0" />
    <path
       d="m 42600,24900 -350,350"
       id="path4310"
       inkscape:connector-curvature="0" />
    <path
       d="m 42600,25330 200,200"
       id="path4312"
       inkscape:connector-curvature="0" />
    <path
       d="m 42600,24900 v 430"
       id="path4314"
       inkscape:connector-curvature="0" />
  </g>
  <g
     style="fill:#ffffff;fill-opacity:0;stroke:#ffffff;stroke-width:157.47999573;stroke-linecap:round;stroke-linejoin:round;stroke-opacity:1"
     id="g4326"
     transform="translate(-37227,-19904)">
    <path
       d="m 45344,24124 156,-156"
       id="path4318"
       inkscape:connector-curvature="0" />
    <path
       d="M 45500,23968 H 43931"
       id="path4320"
       inkscape:connector-curvature="0" />
    <path
       d="m 43775,24124 h -775"
       id="path4322"
       inkscape:connector-curvature="0" />
    <path
       d="m 43931,23968 -156,156"
       id="path4324"
       inkscape:connector-curvature="0" />
  </g>
  <g
     style="fill:#ffffff;fill-opacity:1;stroke:#ffffff;stroke-width:100;stroke-linecap:round;stroke-linejoin:round;stroke-opacity:1"
     id="g4330"
     transform="translate(-37227,-19904)">
    <polyline
       style="fill-rule:evenodd"
       points="47368,28076 37277,28076 37277,27200 37924,27200 37931,27236 37953,27343 38034,27465 38065,27485 38314,27734 38334,27765 38365,27785 38456,27846 38600,27875 38636,27868 40096,27868 40191,27962 40391,28045 40608,28045 40808,27962 40962,27808 41045,27608 41045,27391 40962,27191 40808,27037 40608,26954 40391,26954 40191,27037 40096,27131 38752,27131 38668,27047 38668,26381 42274,26381 42274,26510 42312,26602 42382,26672 42474,26711 42687,26711 42750,26648 42750,26319 42850,26319 42850,26648 42912,26711 43125,26711 43217,26672 43287,26602 43325,26510 43325,26381 43263,26319 42850,26319 42750,26319 42336,26319 42274,26381 38668,26381 38668,24065 38969,24065 38969,24257 38996,24392 39072,24505 39109,24530 39072,24555 38996,24669 38969,24804 38969,24995 38996,25130 39072,25244 39186,25320 39320,25346 39679,25346 39813,25320 39927,25244 39937,25228 40127,25228 40187,25268 40285,25288 40639,25288 40737,25268 40817,25215 40817,25407 40837,25505 40892,25587 40975,25642 41072,25662 41427,25662 41524,25642 41607,25587 41639,25539 42221,25539 42250,25545 42269,25541 42269,25626 42296,25761 42372,25874 42372,25875 42312,25935 42274,26027 42274,26156 42336,26219 42750,26219 42750,26211 42850,26211 42850,26219 43263,26219 43325,26156 43325,26086 44559,26086 44571,26137 44694,26356 44892,26512 45135,26580 45450,26580 45450,25987 45550,25987 45550,26580 45864,26580 46107,26512 46305,26356 46428,26137 46440,26086 46394,25987 45550,25987 45450,25987 44605,25987 44559,26086 43325,26086 43325,26027 43287,25935 43227,25875 43227,25874 43286,25787 44559,25787 44605,25887 45450,25887 45450,25293 45550,25293 45550,25887 46394,25887 46440,25787 46428,25736 46305,25517 46107,25361 45864,25293 45550,25293 45450,25293 45135,25293 44892,25361 44694,25517 44571,25736 44559,25787 43286,25787 43303,25761 43330,25626 43330,25434 43303,25300 43227,25186 43113,25110 42979,25084 42889,25084 42889,24928 42895,24900 42889,24871 42889,24536 43177,24536 43274,24516 43357,24461 43363,24452 43743,24452 43775,24459 43808,24452 43808,24452 43904,24433 44012,24361 44031,24333 44067,24297 44630,24297 44720,24432 44933,24574 45121,24612 45878,24612 46066,24574 46279,24432 46421,24219 46471,23968 46421,23717 46279,23504 46066,23362 45878,23324 45121,23324 44933,23362 44720,23504 44630,23639 43963,23639 43931,23633 43899,23639 43899,23639 43835,23652 43839,23633 43839,23122 43820,23024 43764,22941 43682,22886 43584,22867 42946,22867 42946,22820 42920,22686 42844,22572 42730,22496 42595,22469 42404,22469 42269,22496 42155,22572 42130,22609 42105,22572 41992,22496 41857,22469 41665,22469 41531,22496 41430,22563 41330,22496 41195,22469 41004,22469 40869,22496 40755,22572 40755,22572 40695,22512 40603,22474 40474,22474 40411,22536 40411,22950 40419,22950 40419,23050 40411,23050 40411,23750 40419,23750 40419,23850 40411,23850 40411,24263 40474,24325 40603,24325 40695,24287 40755,24227 40755,24227 40831,24277 40817,24344 40817,24536 40737,24483 40639,24463 40285,24463 40187,24483 40105,24538 40083,24571 39937,24571 39927,24555 39890,24530 39927,24505 40003,24392 40025,24284 40028,24287 40120,24325 40249,24325 40311,24263 40311,23850 39982,23850 39962,23869 39927,23817 39828,23751 39828,23112 39919,23112 39919,23325 39950,23400 39919,23474 39919,23687 39982,23750 40311,23750 40311,23050 39982,23050 39919,23112 39828,23112 39828,22936 39919,22845 39919,22887 39982,22950 40311,22950 40311,22536 40269,22495 40818,21946 40888,21946 41053,21878 41178,21753 41182,21744 42660,21744 42660,22255 42679,22353 42735,22436 42817,22491 42915,22510 43584,22510 43682,22491 43764,22436 43820,22353 43825,22328 44536,22328 44536,22393 44555,22491 44611,22573 44693,22629 44791,22648 46208,22648 46306,22629 46388,22573 46444,22491 46463,22393 46463,21606 46444,21508 46388,21426 46306,21370 46208,21351 44791,21351 44693,21370 44611,21426 44555,21508 44536,21606 44536,21671 43825,21671 43820,21646 43764,21563 43682,21508 43584,21489 42915,21489 42817,21508 42735,21563 42679,21646 42660,21744 41182,21744 41246,21588 41246,21411 41178,21246 41053,21121 40888,21053 40711,21053 40546,21121 40421,21246 40353,21411 40353,21481 39290,22544 39262,22562 39244,22590 39190,22671 39164,22800 39171,22832 39171,23751 39072,23817 38996,23931 38969,24065 38668,24065 38668,21220 38808,21162 38962,21008 39045,20808 39045,20591 38962,20391 38808,20237 38608,20154 38391,20154 38191,20237 38037,20391 37954,20591 37954,20754 37953,20756 37931,20863 37931,27163 37924,27200 37277,27200 37277,19954 47368,19954 47368,28076 "
       id="polyline4328" />
  </g>
  <g
     style="fill:#000000;fill-opacity:1;stroke:#000000;stroke-width:100;stroke-linecap:round;stroke-linejoin:round;stroke-opacity:1"
     id="g4332"
     transform="translate(-37227,-19904)" />
  <g
     style="fill:#000000;fill-opacity:1;stroke:#000000;stroke-width:0;stroke-linecap:round;stroke-linejoin:round;stroke-opacity:1"
     id="g4336"
     transform="translate(-37227,-19904)">
    <circle
       cx="37800"
       cy="20600"
       r="68.897598"
       id="circle4334" />
  </g>
  <g
     style="fill:#000000;fill-opacity:1;stroke:#000000;stroke-width:39.37009811;stroke-linecap:round;stroke-linejoin:round;stroke-opacity:1"
     id="g4338"
     transform="translate(-37227,-19904)" />
  <g
     style="fill:#000000;fill-opacity:1;stroke:#000000;stroke-width:0;stroke-linecap:round;stroke-linejoin:round;stroke-opacity:1"
     id="g4342"
     transform="translate(-37227,-19904)">
    <circle
       cx="46500"
       cy="27400"
       r="68.897598"
       id="circle4340" />
  </g>
  <g
     style="fill:#000000;fill-opacity:1;stroke:#000000;stroke-width:39.37009811;stroke-linecap:round;stroke-linejoin:round;stroke-opacity:1"
     id="g4344"
     transform="translate(-37227,-19904)" />
  <g
     style="fill:#000000;fill-opacity:1;stroke:#000000;stroke-width:0;stroke-linecap:round;stroke-linejoin:round;stroke-opacity:1"
     id="g4348"
     transform="translate(-37227,-19904)">
    <circle
       cx="46500"
       cy="20600"
       r="68.897598"
       id="circle4346" />
  </g>
  <g
     style="fill:#000000;fill-opacity:1;stroke:#000000;stroke-width:39.37009811;stroke-linecap:round;stroke-linejoin:round;stroke-opacity:1"
     id="g4350"
     transform="translate(-37227,-19904)" />
  <g
     style="fill:#000000;fill-opacity:1;stroke:#000000;stroke-width:0;stroke-linecap:round;stroke-linejoin:round;stroke-opacity:1"
     id="g4354"
     transform="translate(-37227,-19904)">
    <circle
       cx="37800"
       cy="27400"
       r="68.897598"
       id="circle4352" />
  </g>
  <g
     style="fill:#000000;fill-opacity:1;stroke:#000000;stroke-width:39.37009811;stroke-linecap:round;stroke-linejoin:round;stroke-opacity:1"
     id="g4356"
     transform="translate(-37227,-19904)" />
  <g
     style="fill:#000000;fill-opacity:1;stroke:#000000;stroke-width:0;stroke-linecap:round;stroke-linejoin:round;stroke-opacity:1"
     id="g4360"
     transform="translate(-37227,-19904)">
    <circle
       cx="40500"
       cy="27500"
       r="68.897598"
       id="circle4358" />
  </g>
  <g
     style="fill:#000000;fill-opacity:1;stroke:#000000;stroke-width:39.37009811;stroke-linecap:round;stroke-linejoin:round;stroke-opacity:1"
     id="g4362"
     transform="translate(-37227,-19904)" />
  <g
     style="fill:#000000;fill-opacity:1;stroke:#000000;stroke-width:0;stroke-linecap:round;stroke-linejoin:round;stroke-opacity:1"
     id="g4366"
     transform="translate(-37227,-19904)">
    <circle
       cx="38500"
       cy="20700"
       r="68.897598"
       id="circle4364" />
  </g>
  <g
     style="fill:#000000;fill-opacity:1;stroke:#000000;stroke-width:39.37009811;stroke-linecap:round;stroke-linejoin:round;stroke-opacity:1"
     id="g4368"
     transform="translate(-37227,-19904)" />
  <g
     style="fill:#000000;fill-opacity:1;stroke:#000000;stroke-width:0;stroke-linecap:round;stroke-linejoin:round;stroke-opacity:1"
     id="g4372"
     transform="translate(-37227,-19904)">
    <circle
       cx="40800"
       cy="21500"
       r="68.897598"
       id="circle4370" />
  </g>
  <g
     style="fill:#000000;fill-opacity:1;stroke:#000000;stroke-width:39.37009811;stroke-linecap:round;stroke-linejoin:round;stroke-opacity:1"
     id="g4374"
     transform="translate(-37227,-19904)" />
  <g
     style="fill:#000000;fill-opacity:1;stroke:#000000;stroke-width:0;stroke-linecap:round;stroke-linejoin:round;stroke-opacity:1"
     id="g4378"
     transform="translate(-37227,-19904)">
    <circle
       cx="45500"
       cy="22000"
       r="68.897598"
       id="circle4376" />
  </g>
  <g
     style="fill:#000000;fill-opacity:1;stroke:#000000;stroke-width:39.37009811;stroke-linecap:round;stroke-linejoin:round;stroke-opacity:1"
     id="g4380"
     transform="translate(-37227,-19904)" />
  <g
     style="fill:#000000;fill-opacity:1;stroke:#000000;stroke-width:0;stroke-linecap:round;stroke-linejoin:round;stroke-opacity:1"
     id="g4384"
     transform="translate(-37227,-19904)">
    <circle
       cx="45500"
       cy="23968.5"
       r="68.897598"
       id="circle4382" />
  </g>
  <g
     style="fill:#000000;fill-opacity:1;stroke:#000000;stroke-width:39.37009811;stroke-linecap:round;stroke-linejoin:round;stroke-opacity:1"
     id="g4386"
     transform="translate(-37227,-19904)" />
  <g
     style="fill:#000000;fill-opacity:1;stroke:#000000;stroke-width:0;stroke-linecap:round;stroke-linejoin:round;stroke-opacity:1"
     id="g4390"
     transform="translate(-37227,-19904)">
    <circle
       cx="45500"
       cy="25937"
       r="68.897598"
       id="circle4388" />
  </g>
  <g
     style="fill:#000000;fill-opacity:1;stroke:#000000;stroke-width:39.37009811;stroke-linecap:round;stroke-linejoin:round;stroke-opacity:1"
     id="g4392"
     transform="translate(-37227,-19904)" />
  <g
     style="fill:#ffffff;fill-opacity:1;stroke:#ffffff;stroke-width:39.37009811;stroke-linecap:round;stroke-linejoin:round;stroke-opacity:1"
     id="g4394"
     transform="translate(-37227,-19904)" />
</svg>
