<?xml version="1.0" standalone="no"?>
 <!DOCTYPE svg PUBLIC "-//W3C//DTD SVG 1.1//EN" 
 "http://www.w3.org/Graphics/SVG/1.1/DTD/svg11.dtd"> 
<svg xmlns="http://www.w3.org/2000/svg" version="1.1" 
    width="29.7002cm" height="21.0007cm" viewBox="0 0 116930 82680 ">
<title>SVG Picture created as TS_kicad-F.Cu.svg date 2019/02/20 19:43:28 </title>
  <desc>Picture generated by PCBNEW </desc>
<g style="fill:#000000; fill-opacity:1;stroke:#000000; stroke-opacity:1;
stroke-linecap:round; stroke-linejoin:round; "
 transform="translate(0 0) scale(1 1)">
</g>
<g style="fill:#000000; fill-opacity:0.0; 
stroke:#000000; stroke-width:-0.000393701; stroke-opacity:1; 
stroke-linecap:round; stroke-linejoin:round;">
</g>
<g style="fill:#000000; fill-opacity:1.0; 
stroke:#000000; stroke-width:39.3701; stroke-opacity:1; 
stroke-linecap:round; stroke-linejoin:round;">
<rect x="67304" y="17303.1" width="15393.7" height="13102.6" rx="0" />
</g>
<g style="fill:#FFFFFF; fill-opacity:1.0; 
stroke:#FFFFFF; stroke-width:39.3701; stroke-opacity:1; 
stroke-linecap:round; stroke-linejoin:round;">
</g>
<g style="fill:#FFFFFF; fill-opacity:1.0; 
stroke:#FFFFFF; stroke-width:0; stroke-opacity:1; 
stroke-linecap:round; stroke-linejoin:round;">
<polyline style="fill-rule:evenodd;"
points="79994,22685
79365,22685
79365,23314
79994,23314
79994,22685
" /> 
</g>
<g style="fill:#FFFFFF; fill-opacity:1.0; 
stroke:#FFFFFF; stroke-width:629.921; stroke-opacity:1; 
stroke-linecap:round; stroke-linejoin:round;">
</g>
<g style="fill:#FFFFFF; fill-opacity:0.0; 
stroke:#FFFFFF; stroke-width:629.921; stroke-opacity:1; 
stroke-linecap:round; stroke-linejoin:round;">
<path d="M79680 26000
L79680 26000
" />
</g>
<g style="fill:#FFFFFF; fill-opacity:0.0; 
stroke:#FFFFFF; stroke-width:0; stroke-opacity:1; 
stroke-linecap:round; stroke-linejoin:round;">
</g>
<g style="fill:#FFFFFF; fill-opacity:1.0; 
stroke:#FFFFFF; stroke-width:0; stroke-opacity:1; 
stroke-linecap:round; stroke-linejoin:round;">
<polyline style="fill-rule:evenodd;"
points="78085,26813
78077,26814
78068,26816
78060,26819
78053,26823
78046,26827
78039,26832
78032,26838
78027,26844
78022,26851
78017,26858
78014,26866
78011,26874
78009,26882
78008,26890
78007,26899
78007,27100
78008,27109
78009,27117
78011,27125
78014,27133
78017,27141
78022,27148
78027,27155
78032,27161
78039,27167
78046,27172
78053,27176
78060,27180
78068,27183
78077,27185
78085,27186
78093,27187
78266,27187
78274,27186
78282,27185
78291,27183
78299,27180
78306,27176
78313,27172
78320,27167
78327,27161
78332,27155
78337,27148
78342,27141
78345,27133
78348,27125
78350,27117
78351,27109
78352,27100
78352,26899
78351,26890
78350,26882
78348,26874
78345,26866
78342,26858
78337,26851
78332,26844
78327,26838
78320,26832
78313,26827
78306,26823
78299,26819
78291,26816
78282,26814
78274,26813
78266,26812
78093,26812
78085,26813
" /> 
<polyline style="fill-rule:evenodd;"
points="78705,26813
78697,26814
78688,26816
78680,26819
78673,26823
78666,26827
78659,26832
78653,26838
78647,26844
78642,26851
78638,26858
78634,26866
78631,26874
78629,26882
78628,26890
78627,26899
78627,27100
78628,27109
78629,27117
78631,27125
78634,27133
78638,27141
78642,27148
78647,27155
78653,27161
78659,27167
78666,27172
78673,27176
78680,27180
78688,27183
78697,27185
78705,27186
78713,27187
78886,27187
78894,27186
78903,27185
78911,27183
78919,27180
78926,27176
78934,27172
78940,27167
78947,27161
78952,27155
78957,27148
78962,27141
78965,27133
78968,27125
78970,27117
78971,27109
78972,27100
78972,26899
78971,26890
78970,26882
78968,26874
78965,26866
78962,26858
78957,26851
78952,26844
78947,26838
78940,26832
78934,26827
78926,26823
78919,26819
78911,26816
78903,26814
78894,26813
78886,26812
78713,26812
78705,26813
" /> 
<polyline style="fill-rule:evenodd;"
points="78693,24224
78684,24226
78675,24228
78666,24231
78657,24235
78649,24240
78642,24246
78635,24252
78628,24259
78623,24267
78618,24275
78614,24283
78611,24292
78609,24301
78607,24310
78607,24320
78607,24679
78607,24689
78609,24698
78611,24707
78614,24716
78618,24724
78623,24732
78628,24740
78635,24747
78642,24753
78649,24759
78657,24764
78666,24768
78675,24771
78684,24773
78693,24775
78703,24775
78895,24775
78904,24775
78913,24773
78922,24771
78931,24768
78940,24764
78948,24759
78955,24753
78962,24747
78969,24740
78974,24732
78979,24724
78983,24716
78986,24707
78989,24698
78990,24689
78991,24679
78991,24320
78990,24310
78989,24301
78986,24292
78983,24283
78979,24275
78974,24267
78969,24259
78962,24252
78955,24246
78948,24240
78940,24235
78931,24231
78922,24228
78913,24226
78904,24224
78895,24224
78703,24224
78693,24224
" /> 
<polyline style="fill-rule:evenodd;"
points="77955,24224
77946,24226
77937,24228
77928,24231
77919,24235
77911,24240
77904,24246
77897,24252
77890,24259
77885,24267
77880,24275
77876,24283
77873,24292
77870,24301
77869,24310
77868,24320
77868,24679
77869,24689
77870,24698
77873,24707
77876,24716
77880,24724
77885,24732
77890,24740
77897,24747
77904,24753
77911,24759
77919,24764
77928,24768
77937,24771
77946,24773
77955,24775
77964,24775
78156,24775
78166,24775
78175,24773
78184,24771
78193,24768
78202,24764
78210,24759
78217,24753
78224,24747
78231,24740
78236,24732
78241,24724
78245,24716
78248,24707
78250,24698
78252,24689
78252,24679
78252,24320
78252,24310
78250,24301
78248,24292
78245,24283
78241,24275
78236,24267
78231,24259
78224,24252
78217,24246
78210,24240
78202,24235
78193,24231
78184,24228
78175,24226
78166,24224
78156,24224
77964,24224
77955,24224
" /> 
<polyline style="fill-rule:evenodd;"
points="75994,22606
75365,22606
75365,23393
75994,23393
75994,22606
" /> 
<polyline style="fill-rule:evenodd;"
points="75994,20480
75365,20480
75365,21267
75994,21267
75994,20480
" /> 
<polyline style="fill-rule:evenodd;"
points="76586,26724
76577,26726
76567,26728
76559,26731
76550,26735
76542,26740
76534,26746
76527,26752
76521,26759
76516,26767
76511,26775
76507,26783
76504,26792
76501,26801
76500,26810
76499,26820
76499,27179
76500,27189
76501,27198
76504,27207
76507,27216
76511,27224
76516,27232
76521,27240
76527,27247
76534,27253
76542,27259
76550,27264
76559,27268
76567,27271
76577,27273
76586,27275
76595,27275
76787,27275
76797,27275
76806,27273
76815,27271
76824,27268
76833,27264
76841,27259
76848,27253
76855,27247
76861,27240
76867,27232
76872,27224
76876,27216
76879,27207
76881,27198
76883,27189
76883,27179
76883,26820
76883,26810
76881,26801
76879,26792
76876,26783
76872,26775
76867,26767
76861,26759
76855,26752
76848,26746
76841,26740
76833,26735
76824,26731
76815,26728
76806,26726
76797,26724
76787,26724
76595,26724
76586,26724
" /> 
<polyline style="fill-rule:evenodd;"
points="77324,26724
77315,26726
77306,26728
77297,26731
77288,26735
77280,26740
77273,26746
77266,26752
77259,26759
77254,26767
77249,26775
77245,26783
77242,26792
77239,26801
77238,26810
77238,26820
77238,27179
77238,27189
77239,27198
77242,27207
77245,27216
77249,27224
77254,27232
77259,27240
77266,27247
77273,27253
77280,27259
77288,27264
77297,27268
77306,27271
77315,27273
77324,27275
77334,27275
77525,27275
77535,27275
77544,27273
77553,27271
77562,27268
77571,27264
77579,27259
77586,27253
77593,27247
77600,27240
77605,27232
77610,27224
77614,27216
77617,27207
77620,27198
77621,27189
77621,27179
77621,26820
77621,26810
77620,26801
77617,26792
77614,26783
77610,26775
77605,26767
77600,26759
77593,26752
77586,26746
77579,26740
77571,26735
77562,26731
77553,26728
77544,26726
77535,26724
77525,26724
77334,26724
77324,26724
" /> 
<polyline style="fill-rule:evenodd;"
points="74574,24474
74565,24476
74556,24478
74547,24481
74538,24485
74530,24490
74523,24496
74516,24502
74509,24509
74504,24517
74499,24525
74495,24533
74492,24542
74489,24551
74488,24560
74488,24570
74488,24929
74488,24939
74489,24948
74492,24957
74495,24966
74499,24974
74504,24982
74509,24990
74516,24997
74523,25003
74530,25009
74538,25014
74547,25018
74556,25021
74565,25023
74574,25025
74584,25025
74775,25025
74785,25025
74794,25023
74803,25021
74812,25018
74821,25014
74829,25009
74836,25003
74843,24997
74850,24990
74855,24982
74860,24974
74864,24966
74867,24957
74870,24948
74871,24939
74871,24929
74871,24570
74871,24560
74870,24551
74867,24542
74864,24533
74860,24525
74855,24517
74850,24509
74843,24502
74836,24496
74829,24490
74821,24485
74812,24481
74803,24478
74794,24476
74785,24474
74775,24474
74584,24474
74574,24474
" /> 
<polyline style="fill-rule:evenodd;"
points="73836,24474
73827,24476
73817,24478
73809,24481
73800,24485
73792,24490
73784,24496
73777,24502
73771,24509
73766,24517
73761,24525
73757,24533
73754,24542
73751,24551
73750,24560
73749,24570
73749,24929
73750,24939
73751,24948
73754,24957
73757,24966
73761,24974
73766,24982
73771,24990
73777,24997
73784,25003
73792,25009
73800,25014
73809,25018
73817,25021
73827,25023
73836,25025
73845,25025
74037,25025
74047,25025
74056,25023
74065,25021
74074,25018
74083,25014
74091,25009
74098,25003
74105,24997
74111,24990
74117,24982
74122,24974
74126,24966
74129,24957
74131,24948
74133,24939
74133,24929
74133,24570
74133,24560
74131,24551
74129,24542
74126,24533
74122,24525
74117,24517
74111,24509
74105,24502
74098,24496
74091,24490
74083,24485
74074,24481
74065,24478
74056,24476
74047,24474
74037,24474
73845,24474
73836,24474
" /> 
<polyline style="fill-rule:evenodd;"
points="72638,21606
71221,21606
71221,22393
72638,22393
72638,21606
" /> 
</g>
<g style="fill:#FFFFFF; fill-opacity:1.0; 
stroke:#FFFFFF; stroke-width:787.402; stroke-opacity:1; 
stroke-linecap:round; stroke-linejoin:round;">
</g>
<g style="fill:#FFFFFF; fill-opacity:0.0; 
stroke:#FFFFFF; stroke-width:787.402; stroke-opacity:1; 
stroke-linecap:round; stroke-linejoin:round;">
<path d="M71615 23968
L72244 23968
" />
<path d="M71615 25937
L72244 25937
" />
</g>
<g style="fill:#FFFFFF; fill-opacity:0.0; 
stroke:#FFFFFF; stroke-width:0; stroke-opacity:1; 
stroke-linecap:round; stroke-linejoin:round;">
</g>
<g style="fill:#FFFFFF; fill-opacity:1.0; 
stroke:#FFFFFF; stroke-width:0; stroke-opacity:1; 
stroke-linecap:round; stroke-linejoin:round;">
<polyline style="fill-rule:evenodd;"
points="74115,24314
74744,24314
74744,23685
74115,23685
74115,24314
" /> 
</g>
<g style="fill:#FFFFFF; fill-opacity:1.0; 
stroke:#FFFFFF; stroke-width:629.921; stroke-opacity:1; 
stroke-linecap:round; stroke-linejoin:round;">
</g>
<g style="fill:#FFFFFF; fill-opacity:0.0; 
stroke:#FFFFFF; stroke-width:629.921; stroke-opacity:1; 
stroke-linecap:round; stroke-linejoin:round;">
<path d="M74430 21000
L74430 21000
" />
</g>
<g style="fill:#FFFFFF; fill-opacity:0.0; 
stroke:#FFFFFF; stroke-width:0; stroke-opacity:1; 
stroke-linecap:round; stroke-linejoin:round;">
</g>
<g style="fill:#FFFFFF; fill-opacity:1.0; 
stroke:#FFFFFF; stroke-width:0; stroke-opacity:1; 
stroke-linecap:round; stroke-linejoin:round;">
<polyline style="fill-rule:evenodd;"
points="78311,23931
78548,23931
78548,23320
78311,23320
78311,23931
" /> 
<polyline style="fill-rule:evenodd;"
points="77811,23931
78048,23931
78048,23320
77811,23320
77811,23931
" /> 
<polyline style="fill-rule:evenodd;"
points="77311,23931
77548,23931
77548,23320
77311,23320
77311,23931
" /> 
<polyline style="fill-rule:evenodd;"
points="76811,23931
77048,23931
77048,23320
76811,23320
76811,23931
" /> 
<polyline style="fill-rule:evenodd;"
points="76811,21805
77048,21805
77048,21194
76811,21194
76811,21805
" /> 
<polyline style="fill-rule:evenodd;"
points="77311,21805
77548,21805
77548,21194
77311,21194
77311,21805
" /> 
<polyline style="fill-rule:evenodd;"
points="77811,21805
78048,21805
78048,21194
77811,21194
77811,21805
" /> 
<polyline style="fill-rule:evenodd;"
points="78311,21805
78548,21805
78548,21194
78311,21194
78311,21805
" /> 
<polyline style="fill-rule:evenodd;"
points="76609,25466
76609,25781
76963,25781
76963,25466
76609,25466
" /> 
<polyline style="fill-rule:evenodd;"
points="76609,24718
76609,25033
76963,25033
76963,24718
76609,24718
" /> 
<polyline style="fill-rule:evenodd;"
points="77396,25092
77396,25407
77750,25407
77750,25092
77396,25092
" /> 
<polyline style="fill-rule:evenodd;"
points="75787,26933
76122,26696
76122,26303
75787,26066
75787,26933
" /> 
<polyline style="fill-rule:evenodd;"
points="74027,27287
74617,27287
74617,26893
74027,26893
74027,27287
" /> 
<polyline style="fill-rule:evenodd;"
points="74025,26696
74734,26696
74734,26303
74025,26303
74025,26696
" /> 
<polyline style="fill-rule:evenodd;"
points="74027,26106
74617,26106
74617,25712
74027,25712
74027,26106
" /> 
<polyline style="fill-rule:evenodd;"
points="75067,26933
75792,26933
75792,26066
75067,26066
75067,26933
" /> 
<polyline style="fill-rule:evenodd;"
points="75071,26066
74678,26342
74678,26657
75071,26933
75071,26066
" /> 
<polyline style="fill-rule:evenodd;"
points="77324,20474
77315,20476
77306,20478
77297,20481
77288,20485
77280,20490
77273,20496
77266,20502
77259,20509
77254,20517
77249,20525
77245,20533
77242,20542
77239,20551
77238,20560
77238,20570
77238,20929
77238,20939
77239,20948
77242,20957
77245,20966
77249,20974
77254,20982
77259,20990
77266,20997
77273,21003
77280,21009
77288,21014
77297,21018
77306,21021
77315,21023
77324,21025
77334,21025
77525,21025
77535,21025
77544,21023
77553,21021
77562,21018
77571,21014
77579,21009
77586,21003
77593,20997
77600,20990
77605,20982
77610,20974
77614,20966
77617,20957
77620,20948
77621,20939
77621,20929
77621,20570
77621,20560
77620,20551
77617,20542
77614,20533
77610,20525
77605,20517
77600,20509
77593,20502
77586,20496
77579,20490
77571,20485
77562,20481
77553,20478
77544,20476
77535,20474
77525,20474
77334,20474
77324,20474
" /> 
<polyline style="fill-rule:evenodd;"
points="78062,20474
78053,20476
78044,20478
78035,20481
78026,20485
78018,20490
78011,20496
78004,20502
77998,20509
77992,20517
77987,20525
77983,20533
77980,20542
77978,20551
77976,20560
77976,20570
77976,20929
77976,20939
77978,20948
77980,20957
77983,20966
77987,20974
77992,20982
77998,20990
78004,20997
78011,21003
78018,21009
78026,21014
78035,21018
78044,21021
78053,21023
78062,21025
78072,21025
78264,21025
78273,21025
78282,21023
78292,21021
78300,21018
78309,21014
78317,21009
78325,21003
78332,20997
78338,20990
78343,20982
78348,20974
78352,20966
78355,20957
78358,20948
78359,20939
78360,20929
78360,20570
78359,20560
78358,20551
78355,20542
78352,20533
78348,20525
78343,20517
78338,20509
78332,20502
78325,20496
78317,20490
78309,20485
78300,20481
78292,20478
78282,20476
78273,20474
78264,20474
78072,20474
78062,20474
" /> 
<polyline style="fill-rule:evenodd;"
points="79240,22046
79231,22048
79222,22050
79213,22053
79205,22057
79197,22062
79189,22068
79182,22074
79176,22081
79170,22088
79165,22096
79161,22105
79158,22114
79156,22123
79154,22132
79154,22142
79154,22334
79154,22343
79156,22352
79158,22362
79161,22370
79165,22379
79170,22387
79176,22395
79182,22402
79189,22408
79197,22413
79205,22418
79213,22422
79222,22425
79231,22428
79240,22429
79250,22430
79609,22430
79619,22429
79628,22428
79637,22425
79646,22422
79654,22418
79662,22413
79670,22408
79677,22402
79683,22395
79689,22387
79694,22379
79698,22370
79701,22362
79703,22352
79705,22343
79705,22334
79705,22142
79705,22132
79703,22123
79701,22114
79698,22105
79694,22096
79689,22088
79683,22081
79677,22074
79670,22068
79662,22062
79654,22057
79646,22053
79637,22050
79628,22048
79619,22046
79609,22046
79250,22046
79240,22046
" /> 
<polyline style="fill-rule:evenodd;"
points="79240,21308
79231,21309
79222,21312
79213,21315
79205,21319
79197,21324
79189,21329
79182,21336
79176,21343
79170,21350
79165,21358
79161,21367
79158,21376
79156,21385
79154,21394
79154,21404
79154,21595
79154,21605
79156,21614
79158,21623
79161,21632
79165,21641
79170,21649
79176,21656
79182,21663
79189,21670
79197,21675
79205,21680
79213,21684
79222,21687
79231,21690
79240,21691
79250,21691
79609,21691
79619,21691
79628,21690
79637,21687
79646,21684
79654,21680
79662,21675
79670,21670
79677,21663
79683,21656
79689,21649
79694,21641
79698,21632
79701,21623
79703,21614
79705,21605
79705,21595
79705,21404
79705,21394
79703,21385
79701,21376
79698,21367
79694,21358
79689,21350
79683,21343
79677,21336
79670,21329
79662,21324
79654,21319
79646,21315
79637,21312
79628,21309
79619,21308
79609,21308
79250,21308
79240,21308
" /> 
<polyline style="fill-rule:evenodd;"
points="75074,23724
75065,23726
75056,23728
75047,23731
75038,23735
75030,23740
75023,23746
75016,23752
75009,23759
75004,23767
74999,23775
74995,23783
74992,23792
74989,23801
74988,23810
74988,23820
74988,24179
74988,24189
74989,24198
74992,24207
74995,24216
74999,24224
75004,24232
75009,24240
75016,24247
75023,24253
75030,24259
75038,24264
75047,24268
75056,24271
75065,24273
75074,24275
75084,24275
75275,24275
75285,24275
75294,24273
75303,24271
75312,24268
75321,24264
75329,24259
75336,24253
75343,24247
75350,24240
75355,24232
75360,24224
75364,24216
75367,24207
75370,24198
75371,24189
75371,24179
75371,23820
75371,23810
75370,23801
75367,23792
75364,23783
75360,23775
75355,23767
75350,23759
75343,23752
75336,23746
75329,23740
75321,23735
75312,23731
75303,23728
75294,23726
75285,23724
75275,23724
75084,23724
75074,23724
" /> 
<polyline style="fill-rule:evenodd;"
points="75812,23724
75803,23726
75794,23728
75785,23731
75776,23735
75768,23740
75761,23746
75754,23752
75748,23759
75742,23767
75737,23775
75733,23783
75730,23792
75728,23801
75726,23810
75726,23820
75726,24179
75726,24189
75728,24198
75730,24207
75733,24216
75737,24224
75742,24232
75748,24240
75754,24247
75761,24253
75768,24259
75776,24264
75785,24268
75794,24271
75803,24273
75812,24275
75822,24275
76014,24275
76023,24275
76032,24273
76042,24271
76050,24268
76059,24264
76067,24259
76075,24253
76082,24247
76088,24240
76093,24232
76098,24224
76102,24216
76105,24207
76108,24198
76109,24189
76110,24179
76110,23820
76109,23810
76108,23801
76105,23792
76102,23783
76098,23775
76093,23767
76088,23759
76082,23752
76075,23746
76067,23740
76059,23735
76050,23731
76042,23728
76032,23726
76023,23724
76014,23724
75822,23724
75812,23724
" /> 
<polyline style="fill-rule:evenodd;"
points="75812,24474
75803,24476
75794,24478
75785,24481
75776,24485
75768,24490
75761,24496
75754,24502
75748,24509
75742,24517
75737,24525
75733,24533
75730,24542
75728,24551
75726,24560
75726,24570
75726,24929
75726,24939
75728,24948
75730,24957
75733,24966
75737,24974
75742,24982
75748,24990
75754,24997
75761,25003
75768,25009
75776,25014
75785,25018
75794,25021
75803,25023
75812,25025
75822,25025
76014,25025
76023,25025
76032,25023
76042,25021
76050,25018
76059,25014
76067,25009
76075,25003
76082,24997
76088,24990
76093,24982
76098,24974
76102,24966
76105,24957
76108,24948
76109,24939
76110,24929
76110,24570
76109,24560
76108,24551
76105,24542
76102,24533
76098,24525
76093,24517
76088,24509
76082,24502
76075,24496
76067,24490
76059,24485
76050,24481
76042,24478
76032,24476
76023,24474
76014,24474
75822,24474
75812,24474
" /> 
<polyline style="fill-rule:evenodd;"
points="75074,24474
75065,24476
75056,24478
75047,24481
75038,24485
75030,24490
75023,24496
75016,24502
75009,24509
75004,24517
74999,24525
74995,24533
74992,24542
74989,24551
74988,24560
74988,24570
74988,24929
74988,24939
74989,24948
74992,24957
74995,24966
74999,24974
75004,24982
75009,24990
75016,24997
75023,25003
75030,25009
75038,25014
75047,25018
75056,25021
75065,25023
75074,25025
75084,25025
75275,25025
75285,25025
75294,25023
75303,25021
75312,25018
75321,25014
75329,25009
75336,25003
75343,24997
75350,24990
75355,24982
75360,24974
75364,24966
75367,24957
75370,24948
75371,24939
75371,24929
75371,24570
75371,24560
75370,24551
75367,24542
75364,24533
75360,24525
75355,24517
75350,24509
75343,24502
75336,24496
75329,24490
75321,24485
75312,24481
75303,24478
75294,24476
75285,24474
75275,24474
75084,24474
75074,24474
" /> 
<polyline style="fill-rule:evenodd;"
points="77312,25974
77303,25976
77294,25978
77285,25981
77276,25985
77268,25990
77261,25996
77254,26002
77248,26009
77242,26017
77237,26025
77233,26033
77230,26042
77228,26051
77226,26060
77226,26070
77226,26429
77226,26439
77228,26448
77230,26457
77233,26466
77237,26474
77242,26482
77248,26490
77254,26497
77261,26503
77268,26509
77276,26514
77285,26518
77294,26521
77303,26523
77312,26525
77322,26525
77514,26525
77523,26525
77532,26523
77542,26521
77550,26518
77559,26514
77567,26509
77575,26503
77582,26497
77588,26490
77593,26482
77598,26474
77602,26466
77605,26457
77608,26448
77609,26439
77610,26429
77610,26070
77609,26060
77608,26051
77605,26042
77602,26033
77598,26025
77593,26017
77588,26009
77582,26002
77575,25996
77567,25990
77559,25985
77550,25981
77542,25978
77532,25976
77523,25974
77514,25974
77322,25974
77312,25974
" /> 
<polyline style="fill-rule:evenodd;"
points="76574,25974
76565,25976
76556,25978
76547,25981
76538,25985
76530,25990
76523,25996
76516,26002
76509,26009
76504,26017
76499,26025
76495,26033
76492,26042
76489,26051
76488,26060
76488,26070
76488,26429
76488,26439
76489,26448
76492,26457
76495,26466
76499,26474
76504,26482
76509,26490
76516,26497
76523,26503
76530,26509
76538,26514
76547,26518
76556,26521
76565,26523
76574,26525
76584,26525
76775,26525
76785,26525
76794,26523
76803,26521
76812,26518
76821,26514
76829,26509
76836,26503
76843,26497
76850,26490
76855,26482
76860,26474
76864,26466
76867,26457
76870,26448
76871,26439
76871,26429
76871,26070
76871,26060
76870,26051
76867,26042
76864,26033
76860,26025
76855,26017
76850,26009
76843,26002
76836,25996
76829,25990
76821,25985
76812,25981
76803,25978
76794,25976
76785,25974
76775,25974
76584,25974
76574,25974
" /> 
<circle cx="76430" cy="24250" r="196.85" /> 
</g>
<g style="fill:#FFFFFF; fill-opacity:1.0; 
stroke:#FFFFFF; stroke-width:39.3701; stroke-opacity:1; 
stroke-linecap:round; stroke-linejoin:round;">
</g>
<g style="fill:#FFFFFF; fill-opacity:1.0; 
stroke:#FFFFFF; stroke-width:0; stroke-opacity:1; 
stroke-linecap:round; stroke-linejoin:round;">
<circle cx="79680" cy="20250" r="295.276" /> 
</g>
<g style="fill:#FFFFFF; fill-opacity:1.0; 
stroke:#FFFFFF; stroke-width:39.3701; stroke-opacity:1; 
stroke-linecap:round; stroke-linejoin:round;">
</g>
<g style="fill:#FFFFFF; fill-opacity:1.0; 
stroke:#FFFFFF; stroke-width:0; stroke-opacity:1; 
stroke-linecap:round; stroke-linejoin:round;">
<circle cx="70430" cy="27500" r="295.276" /> 
</g>
<g style="fill:#FFFFFF; fill-opacity:1.0; 
stroke:#FFFFFF; stroke-width:39.3701; stroke-opacity:1; 
stroke-linecap:round; stroke-linejoin:round;">
</g>
<g style="fill:#FFFFFF; fill-opacity:1.0; 
stroke:#FFFFFF; stroke-width:0; stroke-opacity:1; 
stroke-linecap:round; stroke-linejoin:round;">
<circle cx="70430" cy="20250" r="295.276" /> 
</g>
<g style="fill:#FFFFFF; fill-opacity:1.0; 
stroke:#FFFFFF; stroke-width:39.3701; stroke-opacity:1; 
stroke-linecap:round; stroke-linejoin:round;">
</g>
<g style="fill:#FFFFFF; fill-opacity:1.0; 
stroke:#FFFFFF; stroke-width:0; stroke-opacity:1; 
stroke-linecap:round; stroke-linejoin:round;">
<circle cx="79680" cy="27500" r="295.276" /> 
</g>
<g style="fill:#FFFFFF; fill-opacity:1.0; 
stroke:#FFFFFF; stroke-width:39.3701; stroke-opacity:1; 
stroke-linecap:round; stroke-linejoin:round;">
</g>
<g style="fill:#FFFFFF; fill-opacity:1.0; 
stroke:#FFFFFF; stroke-width:0; stroke-opacity:1; 
stroke-linecap:round; stroke-linejoin:round;">
<circle cx="74430" cy="22500" r="295.276" /> 
</g>
<g style="fill:#FFFFFF; fill-opacity:1.0; 
stroke:#FFFFFF; stroke-width:39.3701; stroke-opacity:1; 
stroke-linecap:round; stroke-linejoin:round;">
</g>
<g style="fill:#FFFFFF; fill-opacity:1.0; 
stroke:#FFFFFF; stroke-width:0; stroke-opacity:1; 
stroke-linecap:round; stroke-linejoin:round;">
<circle cx="78430" cy="26000" r="295.276" /> 
</g>
<g style="fill:#FFFFFF; fill-opacity:1.0; 
stroke:#FFFFFF; stroke-width:39.3701; stroke-opacity:1; 
stroke-linecap:round; stroke-linejoin:round;">
</g>
<g style="fill:#FFFFFF; fill-opacity:1.0; 
stroke:#FFFFFF; stroke-width:0; stroke-opacity:1; 
stroke-linecap:round; stroke-linejoin:round;">
<circle cx="75930" cy="27500" r="295.276" /> 
</g>
<g style="fill:#FFFFFF; fill-opacity:1.0; 
stroke:#FFFFFF; stroke-width:39.3701; stroke-opacity:1; 
stroke-linecap:round; stroke-linejoin:round;">
</g>
<g style="fill:#FFFFFF; fill-opacity:1.0; 
stroke:#FFFFFF; stroke-width:0; stroke-opacity:1; 
stroke-linecap:round; stroke-linejoin:round;">
<circle cx="78930" cy="20750" r="295.276" /> 
</g>
<g style="fill:#FFFFFF; fill-opacity:1.0; 
stroke:#FFFFFF; stroke-width:39.3701; stroke-opacity:1; 
stroke-linecap:round; stroke-linejoin:round;">
</g>
<g style="fill:#FFFFFF; fill-opacity:1.0; 
stroke:#FFFFFF; stroke-width:0; stroke-opacity:1; 
stroke-linecap:round; stroke-linejoin:round;">
<circle cx="75930" cy="25500" r="196.85" /> 
</g>
<g style="fill:#FFFFFF; fill-opacity:1.0; 
stroke:#FFFFFF; stroke-width:39.3701; stroke-opacity:1; 
stroke-linecap:round; stroke-linejoin:round;">
</g>
<g style="fill:#FFFFFF; fill-opacity:1.0; 
stroke:#FFFFFF; stroke-width:157.48; stroke-opacity:1; 
stroke-linecap:round; stroke-linejoin:round;">
</g>
<g style="fill:#FFFFFF; fill-opacity:0.0; 
stroke:#FFFFFF; stroke-width:157.48; stroke-opacity:1; 
stroke-linecap:round; stroke-linejoin:round;">
<path d="M77418 26250
L77418 26005
" />
<path d="M76168 24988
L76680 25500
" />
<path d="M76786 25624
L77054 25624
" />
<path d="M77418 25988
L77418 26005
" />
<path d="M77054 25624
L77418 25988
" />
<path d="M76156 24988
L75918 24750
" />
<path d="M76168 24988
L76156 24988
" />
<path d="M76786 24606
L76430 24250
" />
<path d="M76786 24875
L76786 24606
" />
<path d="M74322 24107
L74430 24000
" />
<path d="M74430 24500
L74680 24750
" />
<path d="M74430 24000
L74430 24500
" />
<path d="M74680 25551
L74322 25909
" />
<path d="M74680 24750
L74680 25551
" />
<path d="M71930 23968
L72796 23968
" />
<path d="M72796 23968
L73514 23250
" />
<path d="M73514 23250
L74680 23250
" />
<path d="M75191 23761
L75191 24000
" />
<path d="M74680 23250
L75191 23761
" />
<path d="M76430 22000
L76930 21500
" />
<path d="M76430 23500
L76430 22000
" />
<path d="M76430 23500
L75930 24000
" />
<path d="M78436 23619
L78430 23625
" />
<path d="M79430 22238
L78941 22238
" />
<path d="M78430 22750
L78430 23625
" />
<path d="M78941 22238
L78430 22750
" />
</g>
<g style="fill:#FFFFFF; fill-opacity:0.0; 
stroke:#FFFFFF; stroke-width:118.11; stroke-opacity:1; 
stroke-linecap:round; stroke-linejoin:round;">
<path d="M78430 21011
L78168 20750
" />
<path d="M78430 21500
L78430 21011
" />
</g>
<g style="fill:#FFFFFF; fill-opacity:0.0; 
stroke:#FFFFFF; stroke-width:236.22; stroke-opacity:1; 
stroke-linecap:round; stroke-linejoin:round;">
<path d="M74322 27194
L74639 27511
" />
</g>
<g style="fill:#FFFFFF; fill-opacity:0.0; 
stroke:#FFFFFF; stroke-width:157.48; stroke-opacity:1; 
stroke-linecap:round; stroke-linejoin:round;">
<path d="M77430 27000
L77430 27511
" />
</g>
<g style="fill:#FFFFFF; fill-opacity:0.0; 
stroke:#FFFFFF; stroke-width:236.22; stroke-opacity:1; 
stroke-linecap:round; stroke-linejoin:round;">
<path d="M74639 27511
L77430 27511
" />
</g>
<g style="fill:#FFFFFF; fill-opacity:0.0; 
stroke:#FFFFFF; stroke-width:118.11; stroke-opacity:1; 
stroke-linecap:round; stroke-linejoin:round;">
<path d="M77430 21500
L77430 20750
" />
<path d="M77305 20874
L77430 20750
" />
<path d="M75680 20874
L77305 20874
" />
</g>
<g style="fill:#FFFFFF; fill-opacity:0.0; 
stroke:#FFFFFF; stroke-width:157.48; stroke-opacity:1; 
stroke-linecap:round; stroke-linejoin:round;">
<path d="M75680 23000
L75430 23000
" />
<path d="M75430 23000
L74930 22500
" />
<path d="M74930 22500
L74430 22500
" />
<path d="M74430 22500
L74430 22500
" />
<path d="M76930 23625
L76930 24000
" />
<path d="M77573 24643
L77573 25250
" />
<path d="M76930 24000
L77573 24643
" />
<path d="M77680 25250
L78430 26000
" />
<path d="M77573 25250
L77680 25250
" />
<path d="M78180 26250
L78430 26000
" />
<path d="M78180 27000
L78180 26250
" />
</g>
<g style="fill:#FFFFFF; fill-opacity:0.0; 
stroke:#FFFFFF; stroke-width:236.22; stroke-opacity:1; 
stroke-linecap:round; stroke-linejoin:round;">
<path d="M79180 21500
L78930 21500
" />
<path d="M78930 21500
L78430 21500
" />
<path d="M78930 20750
L78930 21500
" />
</g>
<g style="fill:#FFFFFF; fill-opacity:0.0; 
stroke:#FFFFFF; stroke-width:157.48; stroke-opacity:1; 
stroke-linecap:round; stroke-linejoin:round;">
<path d="M73244 21000
L74430 21000
" />
<path d="M72244 22000
L73244 21000
" />
<path d="M71930 22000
L72244 22000
" />
<path d="M75180 24750
L75180 25000
" />
<path d="M75180 25000
L75680 25500
" />
<path d="M75680 25500
L75930 25500
" />
<path d="M79180 26620
L78800 27000
" />
<path d="M79180 26620
L79180 24750
" />
<path d="M78930 24500
L78799 24500
" />
<path d="M79180 24750
L78930 24500
" />
<path d="M77930 24369
L78060 24500
" />
<path d="M77930 23625
L77930 24369
" />
</g>
<g style="fill:#FFFFFF; fill-opacity:1.0; 
stroke:#FFFFFF; stroke-width:100; stroke-opacity:1; 
stroke-linecap:round; stroke-linejoin:round;">
<polyline style="fill-rule:evenodd;"
points="69561,28076
80439,28076
80439,26000
80256,26000
80212,26220
80087,26407
79900,26532
79735,26564
79624,26564
79508,26541
79508,26587
79515,26620
79508,26652
79508,26652
79489,26748
79417,26857
79389,26875
79227,27037
79227,27100
79201,27231
79127,27342
79016,27415
78886,27441
78713,27441
78583,27415
78490,27353
78396,27415
78266,27441
78093,27441
77963,27415
77852,27342
77842,27325
77785,27410
77805,27511
77776,27655
77695,27777
77573,27858
77466,27879
76321,27879
76238,27962
76038,28045
75821,28045
75621,27962
75538,27879
74675,27879
74639,27887
74603,27879
74495,27858
74373,27777
74353,27746
74149,27542
74027,27542
73929,27522
73846,27467
73791,27384
73772,27287
73772,26893
73791,26796
73794,26791
73775,26746
73775,26612
73838,26550
74330,26550
74330,26557
74423,26557
74423,26550
75380,26550
75380,26557
75480,26557
75480,26550
75979,26550
75987,26557
76005,26557
76005,26550
76012,26550
76012,26450
76005,26450
76005,26442
75987,26442
75979,26450
75480,26450
75480,25879
75542,25816
75588,25816
75551,25809
75442,25737
75424,25709
75008,25293
75008,25519
75015,25551
74989,25680
74976,25699
74917,25788
74889,25807
74872,25824
74872,25908
74926,25854
74947,25846
74974,25831
74991,25828
75018,25816
75047,25816
75071,25812
75096,25816
75317,25816
75380,25879
75380,26450
74423,26450
74423,26442
74330,26442
74330,26450
73838,26450
73775,26387
73775,26253
73794,26208
73791,26203
73772,26106
73772,26086
72870,26086
72858,26137
72735,26356
72537,26512
72294,26580
71980,26580
71980,25987
71880,25987
71880,26580
71565,26580
71322,26512
71124,26356
71001,26137
70989,26086
71035,25987
71880,25987
71980,25987
72824,25987
72870,26086
73772,26086
73772,25787
72870,25787
72824,25887
71980,25887
71980,25293
71880,25293
71880,25887
71035,25887
70989,25787
71001,25736
71124,25517
71322,25361
71565,25293
71880,25293
71980,25293
72294,25293
72537,25361
72735,25517
72858,25736
72870,25787
73772,25787
73772,25712
73791,25615
73846,25532
73929,25477
74027,25457
74309,25457
74351,25415
74351,25187
74335,25177
74335,25177
74275,25237
74183,25275
74054,25275
73991,25213
73991,24800
73891,24800
73891,25213
73829,25275
73700,25275
73608,25237
73537,25167
73499,25075
73499,24862
73562,24800
73891,24800
73991,24800
73999,24800
73999,24700
73991,24700
73991,24692
73891,24692
73891,24700
73562,24700
73499,24637
73499,24424
73537,24332
73608,24262
73700,24224
73829,24224
73860,24255
73860,23685
73879,23587
73885,23578
73650,23578
73051,24178
73033,24205
72924,24278
72828,24297
72796,24303
72795,24303
72709,24432
72496,24574
72308,24612
71551,24612
71363,24574
71150,24432
71008,24219
70958,23968
71008,23717
71150,23504
71363,23362
71551,23324
72308,23324
72496,23362
72709,23504
72743,23556
73259,23040
73277,23012
73386,22940
73482,22921
73482,22921
73514,22914
73547,22921
74080,22921
73967,22808
73884,22608
73884,22391
73967,22191
74121,22037
74321,21954
74538,21954
74738,22037
74872,22171
74897,22171
74930,22164
74962,22171
74962,22171
75058,22190
75167,22262
75185,22290
75266,22371
75267,22370
75365,22351
75994,22351
76092,22370
76101,22376
76101,22032
76094,21999
76101,21967
76101,21967
76120,21871
76192,21762
76220,21744
76556,21408
76556,21194
76559,21183
76249,21183
76249,21267
76230,21365
76175,21447
76092,21503
75994,21522
75365,21522
75267,21503
75184,21447
75129,21365
75110,21267
75110,21000
75006,21000
74962,21220
74837,21407
74650,21532
74485,21564
74374,21564
74209,21532
74022,21407
73970,21328
73381,21328
72893,21816
72893,22393
72874,22491
72818,22573
72736,22629
72638,22648
71221,22648
71123,22629
71041,22573
70985,22491
70966,22393
70966,21606
70985,21508
71041,21426
71123,21370
71221,21351
72428,21351
72989,20790
73007,20762
73116,20690
73212,20671
73212,20671
73244,20664
73277,20671
73970,20671
74022,20592
74209,20467
74374,20435
74485,20435
74650,20467
74837,20592
74962,20779
75006,21000
75110,21000
75110,20480
75129,20382
75184,20300
75267,20244
75365,20225
75994,20225
76092,20244
76175,20300
76230,20382
76249,20480
76249,20564
76984,20564
77009,20436
77085,20322
77199,20246
77334,20219
77525,20219
77660,20246
77774,20322
77799,20359
77824,20322
77937,20246
78072,20219
78264,20219
78398,20246
78512,20322
78542,20366
78621,20287
78821,20204
79038,20204
79238,20287
79392,20441
79475,20641
79475,20858
79394,21053
79609,21053
79743,21079
79857,21155
79933,21269
79960,21404
79960,21595
79933,21730
79857,21844
79820,21869
79857,21894
79933,22007
79960,22142
79960,22334
79940,22435
80044,22435
80136,22473
80206,22543
80244,22635
80244,22887
80182,22950
79730,22950
79730,22942
79630,22942
79630,22950
79177,22950
79115,22887
79115,22657
79038,22606
78758,22886
78758,23186
78783,23223
78803,23320
78803,23931
78795,23969
78895,23969
79029,23996
79143,24072
79219,24186
79245,24320
79245,24351
79389,24494
79417,24512
79435,24540
79489,24621
79515,24750
79508,24782
79508,25458
79624,25435
79735,25435
79900,25467
80087,25592
80212,25779
80256,26000
80439,26000
80439,23112
80244,23112
80244,23364
80206,23456
80136,23526
80044,23564
79792,23564
79730,23502
79730,23050
79630,23050
79630,23502
79567,23564
79315,23564
79223,23526
79153,23456
79115,23364
79115,23112
79177,23050
79630,23050
79730,23050
80182,23050
80244,23112
80439,23112
80439,19561
69561,19561
69561,28076
" /> 
<polyline style="fill-rule:evenodd;"
points="76630,26200
76622,26200
76622,26300
76630,26300
76630,26525
76641,26536
76641,26950
76312,26950
76268,26905
76139,26996
76238,27037
76281,27080
76312,27050
76641,27050
76641,27057
76741,27057
76741,27050
76749,27050
76749,26950
76741,26950
76741,26724
76730,26713
76730,26300
76737,26300
76737,26200
76730,26200
76730,26192
76630,26192
76630,26200
" /> 
</g>
<g style="fill:#000000; fill-opacity:1.0; 
stroke:#000000; stroke-width:100; stroke-opacity:1; 
stroke-linecap:round; stroke-linejoin:round;">
</g>
<g style="fill:#000000; fill-opacity:1.0; 
stroke:#000000; stroke-width:0; stroke-opacity:1; 
stroke-linecap:round; stroke-linejoin:round;">
<circle cx="76430" cy="24250" r="68.8976" /> 
</g>
<g style="fill:#000000; fill-opacity:1.0; 
stroke:#000000; stroke-width:39.3701; stroke-opacity:1; 
stroke-linecap:round; stroke-linejoin:round;">
</g>
<g style="fill:#000000; fill-opacity:1.0; 
stroke:#000000; stroke-width:0; stroke-opacity:1; 
stroke-linecap:round; stroke-linejoin:round;">
<circle cx="79680" cy="20250" r="68.8976" /> 
</g>
<g style="fill:#000000; fill-opacity:1.0; 
stroke:#000000; stroke-width:39.3701; stroke-opacity:1; 
stroke-linecap:round; stroke-linejoin:round;">
</g>
<g style="fill:#000000; fill-opacity:1.0; 
stroke:#000000; stroke-width:0; stroke-opacity:1; 
stroke-linecap:round; stroke-linejoin:round;">
<circle cx="70430" cy="27500" r="68.8976" /> 
</g>
<g style="fill:#000000; fill-opacity:1.0; 
stroke:#000000; stroke-width:39.3701; stroke-opacity:1; 
stroke-linecap:round; stroke-linejoin:round;">
</g>
<g style="fill:#000000; fill-opacity:1.0; 
stroke:#000000; stroke-width:0; stroke-opacity:1; 
stroke-linecap:round; stroke-linejoin:round;">
<circle cx="70430" cy="20250" r="68.8976" /> 
</g>
<g style="fill:#000000; fill-opacity:1.0; 
stroke:#000000; stroke-width:39.3701; stroke-opacity:1; 
stroke-linecap:round; stroke-linejoin:round;">
</g>
<g style="fill:#000000; fill-opacity:1.0; 
stroke:#000000; stroke-width:0; stroke-opacity:1; 
stroke-linecap:round; stroke-linejoin:round;">
<circle cx="79680" cy="27500" r="68.8976" /> 
</g>
<g style="fill:#000000; fill-opacity:1.0; 
stroke:#000000; stroke-width:39.3701; stroke-opacity:1; 
stroke-linecap:round; stroke-linejoin:round;">
</g>
<g style="fill:#000000; fill-opacity:1.0; 
stroke:#000000; stroke-width:0; stroke-opacity:1; 
stroke-linecap:round; stroke-linejoin:round;">
<circle cx="74430" cy="22500" r="68.8976" /> 
</g>
<g style="fill:#000000; fill-opacity:1.0; 
stroke:#000000; stroke-width:39.3701; stroke-opacity:1; 
stroke-linecap:round; stroke-linejoin:round;">
</g>
<g style="fill:#000000; fill-opacity:1.0; 
stroke:#000000; stroke-width:0; stroke-opacity:1; 
stroke-linecap:round; stroke-linejoin:round;">
<circle cx="78430" cy="26000" r="68.8976" /> 
</g>
<g style="fill:#000000; fill-opacity:1.0; 
stroke:#000000; stroke-width:39.3701; stroke-opacity:1; 
stroke-linecap:round; stroke-linejoin:round;">
</g>
<g style="fill:#000000; fill-opacity:1.0; 
stroke:#000000; stroke-width:0; stroke-opacity:1; 
stroke-linecap:round; stroke-linejoin:round;">
<circle cx="75930" cy="27500" r="68.8976" /> 
</g>
<g style="fill:#000000; fill-opacity:1.0; 
stroke:#000000; stroke-width:39.3701; stroke-opacity:1; 
stroke-linecap:round; stroke-linejoin:round;">
</g>
<g style="fill:#000000; fill-opacity:1.0; 
stroke:#000000; stroke-width:0; stroke-opacity:1; 
stroke-linecap:round; stroke-linejoin:round;">
<circle cx="78930" cy="20750" r="68.8976" /> 
</g>
<g style="fill:#000000; fill-opacity:1.0; 
stroke:#000000; stroke-width:39.3701; stroke-opacity:1; 
stroke-linecap:round; stroke-linejoin:round;">
</g>
<g style="fill:#000000; fill-opacity:1.0; 
stroke:#000000; stroke-width:0; stroke-opacity:1; 
stroke-linecap:round; stroke-linejoin:round;">
<circle cx="75930" cy="25500" r="68.8976" /> 
</g>
<g style="fill:#000000; fill-opacity:1.0; 
stroke:#000000; stroke-width:39.3701; stroke-opacity:1; 
stroke-linecap:round; stroke-linejoin:round;">
</g>
<g style="fill:#000000; fill-opacity:1.0; 
stroke:#000000; stroke-width:0; stroke-opacity:1; 
stroke-linecap:round; stroke-linejoin:round;">
<circle cx="79680" cy="23000" r="68.8976" /> 
</g>
<g style="fill:#000000; fill-opacity:1.0; 
stroke:#000000; stroke-width:39.3701; stroke-opacity:1; 
stroke-linecap:round; stroke-linejoin:round;">
</g>
<g style="fill:#000000; fill-opacity:1.0; 
stroke:#000000; stroke-width:0; stroke-opacity:1; 
stroke-linecap:round; stroke-linejoin:round;">
<circle cx="79680" cy="26000" r="68.8976" /> 
</g>
<g style="fill:#000000; fill-opacity:1.0; 
stroke:#000000; stroke-width:39.3701; stroke-opacity:1; 
stroke-linecap:round; stroke-linejoin:round;">
</g>
<g style="fill:#000000; fill-opacity:1.0; 
stroke:#000000; stroke-width:0; stroke-opacity:1; 
stroke-linecap:round; stroke-linejoin:round;">
<circle cx="71930" cy="22000" r="68.8976" /> 
</g>
<g style="fill:#000000; fill-opacity:1.0; 
stroke:#000000; stroke-width:39.3701; stroke-opacity:1; 
stroke-linecap:round; stroke-linejoin:round;">
</g>
<g style="fill:#000000; fill-opacity:1.0; 
stroke:#000000; stroke-width:0; stroke-opacity:1; 
stroke-linecap:round; stroke-linejoin:round;">
<circle cx="71930" cy="23968.5" r="68.8976" /> 
</g>
<g style="fill:#000000; fill-opacity:1.0; 
stroke:#000000; stroke-width:39.3701; stroke-opacity:1; 
stroke-linecap:round; stroke-linejoin:round;">
</g>
<g style="fill:#000000; fill-opacity:1.0; 
stroke:#000000; stroke-width:0; stroke-opacity:1; 
stroke-linecap:round; stroke-linejoin:round;">
<circle cx="71930" cy="25937" r="68.8976" /> 
</g>
<g style="fill:#000000; fill-opacity:1.0; 
stroke:#000000; stroke-width:39.3701; stroke-opacity:1; 
stroke-linecap:round; stroke-linejoin:round;">
</g>
<g style="fill:#000000; fill-opacity:1.0; 
stroke:#000000; stroke-width:0; stroke-opacity:1; 
stroke-linecap:round; stroke-linejoin:round;">
<circle cx="74430" cy="24000" r="68.8976" /> 
</g>
<g style="fill:#000000; fill-opacity:1.0; 
stroke:#000000; stroke-width:39.3701; stroke-opacity:1; 
stroke-linecap:round; stroke-linejoin:round;">
</g>
<g style="fill:#000000; fill-opacity:1.0; 
stroke:#000000; stroke-width:0; stroke-opacity:1; 
stroke-linecap:round; stroke-linejoin:round;">
<circle cx="74430" cy="21000" r="68.8976" /> 
</g>
<g style="fill:#000000; fill-opacity:1.0; 
stroke:#000000; stroke-width:39.3701; stroke-opacity:1; 
stroke-linecap:round; stroke-linejoin:round;">
</g>
<g style="fill:#FFFFFF; fill-opacity:1.0; 
stroke:#FFFFFF; stroke-width:39.3701; stroke-opacity:1; 
stroke-linecap:round; stroke-linejoin:round;">
</g> 
</svg>
