<?xml version="1.0" standalone="no"?>
 <!DOCTYPE svg PUBLIC "-//W3C//DTD SVG 1.1//EN" 
 "http://www.w3.org/Graphics/SVG/1.1/DTD/svg11.dtd"> 
<svg xmlns="http://www.w3.org/2000/svg" version="1.1" 
    width="29.7002cm" height="21.0007cm" viewBox="0 0 116930 82680 ">
<title>SVG Picture created as TS_kicad-F.Mask.svg date 2019/02/22 21:23:23 </title>
  <desc>Picture generated by PCBNEW </desc>
<g style="fill:#000000; fill-opacity:1;stroke:#000000; stroke-opacity:1;
stroke-linecap:round; stroke-linejoin:round; "
 transform="translate(0 0) scale(1 1)">
</g>
<g style="fill:#000000; fill-opacity:0.0; 
stroke:#000000; stroke-width:-0.000393701; stroke-opacity:1; 
stroke-linecap:round; stroke-linejoin:round;">
</g>
<g style="fill:#000000; fill-opacity:0.0; 
stroke:#000000; stroke-width:0; stroke-opacity:1; 
stroke-linecap:round; stroke-linejoin:round;">
</g>
<g style="fill:#000000; fill-opacity:1.0; 
stroke:#000000; stroke-width:0; stroke-opacity:1; 
stroke-linecap:round; stroke-linejoin:round;">
<polyline style="fill-rule:evenodd;"
points="75325,20404
74734,20404
74734,20995
75325,20995
75325,20404
" /> 
<polyline style="fill-rule:evenodd;"
points="75325,23475
74734,23475
74734,24066
75325,24066
75325,23475
" /> 
<polyline style="fill-rule:evenodd;"
points="73345,22627
74014,22627
74014,22116
73345,22116
73345,22627
" /> 
<polyline style="fill-rule:evenodd;"
points="73345,24005
74014,24005
74014,23494
73345,23494
73345,24005
" /> 
<polyline style="fill-rule:evenodd;"
points="77996,25354
77996,24645
77012,24645
77012,25354
77996,25354
" /> 
<polyline style="fill-rule:evenodd;"
points="76422,25354
76422,24645
75437,24645
75437,25354
76422,25354
" /> 
<polyline style="fill-rule:evenodd;"
points="76820,26128
76812,26129
76804,26131
76796,26134
76788,26137
76781,26142
76774,26147
76768,26152
76762,26159
76757,26166
76753,26173
76749,26180
76746,26188
76744,26197
76743,26205
76742,26213
76742,26386
76743,26394
76744,26402
76746,26411
76749,26419
76753,26426
76757,26433
76762,26440
76768,26447
76774,26452
76781,26457
76788,26462
76796,26465
76804,26468
76812,26470
76820,26471
76829,26472
77030,26472
77039,26471
77047,26470
77055,26468
77063,26465
77071,26462
77078,26457
77085,26452
77091,26447
77097,26440
77102,26433
77106,26426
77110,26419
77113,26411
77115,26402
77116,26394
77117,26386
77117,26213
77116,26205
77115,26197
77113,26188
77110,26180
77106,26173
77102,26166
77097,26159
77091,26152
77085,26147
77078,26142
77071,26137
77063,26134
77055,26131
77047,26129
77039,26128
77030,26127
76829,26127
76820,26128
" /> 
<polyline style="fill-rule:evenodd;"
points="76820,26748
76812,26749
76804,26751
76796,26754
76788,26758
76781,26762
76774,26767
76768,26773
76762,26779
76757,26786
76753,26793
76749,26800
76746,26808
76744,26817
76743,26825
76742,26833
76742,27006
76743,27014
76744,27023
76746,27031
76749,27039
76753,27046
76757,27054
76762,27060
76768,27067
76774,27072
76781,27077
76788,27082
76796,27085
76804,27088
76812,27090
76820,27091
76829,27092
77030,27092
77039,27091
77047,27090
77055,27088
77063,27085
77071,27082
77078,27077
77085,27072
77091,27067
77097,27060
77102,27054
77106,27046
77110,27039
77113,27031
77115,27023
77116,27014
77117,27006
77117,26833
77116,26825
77115,26817
77113,26808
77110,26800
77106,26793
77102,26786
77097,26779
77091,26773
77085,26767
77078,26762
77071,26758
77063,26754
77055,26751
77047,26749
77039,26748
77030,26747
76829,26747
76820,26748
" /> 
<polyline style="fill-rule:evenodd;"
points="77640,26777
77631,26779
77622,26781
77613,26784
77605,26788
77597,26793
77589,26798
77582,26805
77576,26812
77570,26819
77565,26827
77561,26836
77558,26845
77556,26854
77554,26863
77554,26873
77554,27065
77554,27074
77556,27083
77558,27092
77561,27101
77565,27110
77570,27118
77576,27125
77582,27132
77589,27139
77597,27144
77605,27149
77613,27153
77622,27156
77631,27159
77640,27160
77650,27161
78009,27161
78019,27160
78028,27159
78037,27156
78046,27153
78054,27149
78062,27144
78070,27139
78077,27132
78083,27125
78089,27118
78094,27110
78098,27101
78101,27092
78103,27083
78105,27074
78105,27065
78105,26873
78105,26863
78103,26854
78101,26845
78098,26836
78094,26827
78089,26819
78083,26812
78077,26805
78070,26798
78062,26793
78054,26788
78046,26784
78037,26781
78028,26779
78019,26777
78009,26777
77650,26777
77640,26777
" /> 
<polyline style="fill-rule:evenodd;"
points="77640,26039
77631,26040
77622,26043
77613,26046
77605,26050
77597,26055
77589,26060
77582,26067
77576,26074
77570,26081
77565,26089
77561,26098
77558,26107
77556,26116
77554,26125
77554,26134
77554,26326
77554,26336
77556,26345
77558,26354
77561,26363
77565,26372
77570,26380
77576,26387
77582,26394
77589,26401
77597,26406
77605,26411
77613,26415
77622,26418
77631,26420
77640,26422
77650,26422
78009,26422
78019,26422
78028,26420
78037,26418
78046,26415
78054,26411
78062,26406
78070,26401
78077,26394
78083,26387
78089,26380
78094,26372
78098,26363
78101,26354
78103,26345
78105,26336
78105,26326
78105,26134
78105,26125
78103,26116
78101,26107
78098,26098
78094,26089
78089,26081
78083,26074
78077,26067
78070,26060
78062,26055
78054,26050
78046,26046
78037,26043
78028,26040
78019,26039
78009,26038
77650,26038
77640,26039
" /> 
<polyline style="fill-rule:evenodd;"
points="75740,26058
75731,26059
75722,26062
75713,26065
75705,26069
75697,26074
75689,26079
75682,26086
75676,26093
75670,26100
75665,26108
75661,26117
75658,26126
75656,26135
75654,26144
75654,26154
75654,26345
75654,26355
75656,26364
75658,26373
75661,26382
75665,26391
75670,26399
75676,26406
75682,26413
75689,26420
75697,26425
75705,26430
75713,26434
75722,26437
75731,26440
75740,26441
75750,26441
76109,26441
76119,26441
76128,26440
76137,26437
76146,26434
76154,26430
76162,26425
76170,26420
76177,26413
76183,26406
76189,26399
76194,26391
76198,26382
76201,26373
76203,26364
76205,26355
76205,26345
76205,26154
76205,26144
76203,26135
76201,26126
76198,26117
76194,26108
76189,26100
76183,26093
76177,26086
76170,26079
76162,26074
76154,26069
76146,26065
76137,26062
76128,26059
76119,26058
76109,26058
75750,26058
75740,26058
" /> 
<polyline style="fill-rule:evenodd;"
points="75740,26796
75731,26798
75722,26800
75713,26803
75705,26807
75697,26812
75689,26818
75682,26824
75676,26831
75670,26838
75665,26846
75661,26855
75658,26864
75656,26873
75654,26882
75654,26892
75654,27084
75654,27093
75656,27102
75658,27112
75661,27120
75665,27129
75670,27137
75676,27145
75682,27152
75689,27158
75697,27163
75705,27168
75713,27172
75722,27175
75731,27178
75740,27179
75750,27180
76109,27180
76119,27179
76128,27178
76137,27175
76146,27172
76154,27168
76162,27163
76170,27158
76177,27152
76183,27145
76189,27137
76194,27129
76198,27120
76201,27112
76203,27102
76205,27093
76205,27084
76205,26892
76205,26882
76203,26873
76201,26864
76198,26855
76194,26846
76189,26838
76183,26831
76177,26824
76170,26818
76162,26812
76154,26807
76146,26803
76137,26800
76128,26798
76119,26796
76109,26796
75750,26796
75740,26796
" /> 
<polyline style="fill-rule:evenodd;"
points="73455,24724
73446,24726
73437,24728
73428,24731
73419,24735
73411,24740
73404,24746
73397,24752
73390,24759
73385,24767
73380,24775
73376,24783
73373,24792
73370,24801
73369,24810
73368,24820
73368,25179
73369,25189
73370,25198
73373,25207
73376,25216
73380,25224
73385,25232
73390,25240
73397,25247
73404,25253
73411,25259
73419,25264
73428,25268
73437,25271
73446,25273
73455,25275
73464,25275
73656,25275
73666,25275
73675,25273
73684,25271
73693,25268
73702,25264
73710,25259
73717,25253
73724,25247
73731,25240
73736,25232
73741,25224
73745,25216
73748,25207
73750,25198
73752,25189
73752,25179
73752,24820
73752,24810
73750,24801
73748,24792
73745,24783
73741,24775
73736,24767
73731,24759
73724,24752
73717,24746
73710,24740
73702,24735
73693,24731
73684,24728
73675,24726
73666,24724
73656,24724
73464,24724
73455,24724
" /> 
<polyline style="fill-rule:evenodd;"
points="74193,24724
74184,24726
74175,24728
74166,24731
74157,24735
74149,24740
74142,24746
74135,24752
74128,24759
74123,24767
74118,24775
74114,24783
74111,24792
74109,24801
74107,24810
74107,24820
74107,25179
74107,25189
74109,25198
74111,25207
74114,25216
74118,25224
74123,25232
74128,25240
74135,25247
74142,25253
74149,25259
74157,25264
74166,25268
74175,25271
74184,25273
74193,25275
74203,25275
74395,25275
74404,25275
74413,25273
74422,25271
74431,25268
74440,25264
74448,25259
74455,25253
74462,25247
74469,25240
74474,25232
74479,25224
74483,25216
74486,25207
74489,25198
74490,25189
74491,25179
74491,24820
74490,24810
74489,24801
74486,24792
74483,24783
74479,24775
74474,24767
74469,24759
74462,24752
74455,24746
74448,24740
74440,24735
74431,24731
74422,24728
74413,24726
74404,24724
74395,24724
74203,24724
74193,24724
" /> 
<polyline style="fill-rule:evenodd;"
points="72138,21606
70721,21606
70721,22393
72138,22393
72138,21606
" /> 
</g>
<g style="fill:#000000; fill-opacity:1.0; 
stroke:#000000; stroke-width:787.402; stroke-opacity:1; 
stroke-linecap:round; stroke-linejoin:round;">
</g>
<g style="fill:#000000; fill-opacity:0.0; 
stroke:#000000; stroke-width:787.402; stroke-opacity:1; 
stroke-linecap:round; stroke-linejoin:round;">
<path d="M71115 23968
L71744 23968
" />
<path d="M71115 25937
L71744 25937
" />
</g>
<g style="fill:#000000; fill-opacity:0.0; 
stroke:#000000; stroke-width:0; stroke-opacity:1; 
stroke-linecap:round; stroke-linejoin:round;">
</g>
<g style="fill:#000000; fill-opacity:1.0; 
stroke:#000000; stroke-width:0; stroke-opacity:1; 
stroke-linecap:round; stroke-linejoin:round;">
<polyline style="fill-rule:evenodd;"
points="78011,23931
78248,23931
78248,23320
78011,23320
78011,23931
" /> 
<polyline style="fill-rule:evenodd;"
points="77511,23931
77748,23931
77748,23320
77511,23320
77511,23931
" /> 
<polyline style="fill-rule:evenodd;"
points="77011,23931
77248,23931
77248,23320
77011,23320
77011,23931
" /> 
<polyline style="fill-rule:evenodd;"
points="76511,23931
76748,23931
76748,23320
76511,23320
76511,23931
" /> 
<polyline style="fill-rule:evenodd;"
points="76511,21805
76748,21805
76748,21194
76511,21194
76511,21805
" /> 
<polyline style="fill-rule:evenodd;"
points="77011,21805
77248,21805
77248,21194
77011,21194
77011,21805
" /> 
<polyline style="fill-rule:evenodd;"
points="77511,21805
77748,21805
77748,21194
77511,21194
77511,21805
" /> 
<polyline style="fill-rule:evenodd;"
points="78011,21805
78248,21805
78248,21194
78011,21194
78011,21805
" /> 
<polyline style="fill-rule:evenodd;"
points="75092,26933
75427,26696
75427,26303
75092,26066
75092,26933
" /> 
<polyline style="fill-rule:evenodd;"
points="73332,27287
73922,27287
73922,26893
73332,26893
73332,27287
" /> 
<polyline style="fill-rule:evenodd;"
points="73330,26696
74039,26696
74039,26303
73330,26303
73330,26696
" /> 
<polyline style="fill-rule:evenodd;"
points="73332,26106
73922,26106
73922,25712
73332,25712
73332,26106
" /> 
<polyline style="fill-rule:evenodd;"
points="74372,26933
75097,26933
75097,26066
74372,26066
74372,26933
" /> 
<polyline style="fill-rule:evenodd;"
points="74376,26066
73983,26342
73983,26657
74376,26933
74376,26066
" /> 
<polyline style="fill-rule:evenodd;"
points="76924,20324
76915,20326
76906,20328
76897,20331
76888,20335
76880,20340
76873,20346
76866,20352
76859,20359
76854,20367
76849,20375
76845,20383
76842,20392
76839,20401
76838,20410
76838,20420
76838,20779
76838,20789
76839,20798
76842,20807
76845,20816
76849,20824
76854,20832
76859,20840
76866,20847
76873,20853
76880,20859
76888,20864
76897,20868
76906,20871
76915,20873
76924,20875
76934,20875
77125,20875
77135,20875
77144,20873
77153,20871
77162,20868
77171,20864
77179,20859
77186,20853
77193,20847
77200,20840
77205,20832
77210,20824
77214,20816
77217,20807
77220,20798
77221,20789
77221,20779
77221,20420
77221,20410
77220,20401
77217,20392
77214,20383
77210,20375
77205,20367
77200,20359
77193,20352
77186,20346
77179,20340
77171,20335
77162,20331
77153,20328
77144,20326
77135,20324
77125,20324
76934,20324
76924,20324
" /> 
<polyline style="fill-rule:evenodd;"
points="77662,20324
77653,20326
77644,20328
77635,20331
77626,20335
77618,20340
77611,20346
77604,20352
77598,20359
77592,20367
77587,20375
77583,20383
77580,20392
77578,20401
77576,20410
77576,20420
77576,20779
77576,20789
77578,20798
77580,20807
77583,20816
77587,20824
77592,20832
77598,20840
77604,20847
77611,20853
77618,20859
77626,20864
77635,20868
77644,20871
77653,20873
77662,20875
77672,20875
77864,20875
77873,20875
77882,20873
77892,20871
77900,20868
77909,20864
77917,20859
77925,20853
77932,20847
77938,20840
77943,20832
77948,20824
77952,20816
77955,20807
77958,20798
77959,20789
77960,20779
77960,20420
77959,20410
77958,20401
77955,20392
77952,20383
77948,20375
77943,20367
77938,20359
77932,20352
77925,20346
77917,20340
77909,20335
77900,20331
77892,20328
77882,20326
77873,20324
77864,20324
77672,20324
77662,20324
" /> 
<polyline style="fill-rule:evenodd;"
points="78640,22746
78631,22748
78622,22750
78613,22753
78605,22757
78597,22762
78589,22768
78582,22774
78576,22781
78570,22788
78565,22796
78561,22805
78558,22814
78556,22823
78554,22832
78554,22842
78554,23034
78554,23043
78556,23052
78558,23062
78561,23070
78565,23079
78570,23087
78576,23095
78582,23102
78589,23108
78597,23113
78605,23118
78613,23122
78622,23125
78631,23128
78640,23129
78650,23130
79009,23130
79019,23129
79028,23128
79037,23125
79046,23122
79054,23118
79062,23113
79070,23108
79077,23102
79083,23095
79089,23087
79094,23079
79098,23070
79101,23062
79103,23052
79105,23043
79105,23034
79105,22842
79105,22832
79103,22823
79101,22814
79098,22805
79094,22796
79089,22788
79083,22781
79077,22774
79070,22768
79062,22762
79054,22757
79046,22753
79037,22750
79028,22748
79019,22746
79009,22746
78650,22746
78640,22746
" /> 
<polyline style="fill-rule:evenodd;"
points="78640,22008
78631,22009
78622,22012
78613,22015
78605,22019
78597,22024
78589,22029
78582,22036
78576,22043
78570,22050
78565,22058
78561,22067
78558,22076
78556,22085
78554,22094
78554,22104
78554,22295
78554,22305
78556,22314
78558,22323
78561,22332
78565,22341
78570,22349
78576,22356
78582,22363
78589,22370
78597,22375
78605,22380
78613,22384
78622,22387
78631,22390
78640,22391
78650,22391
79009,22391
79019,22391
79028,22390
79037,22387
79046,22384
79054,22380
79062,22375
79070,22370
79077,22363
79083,22356
79089,22349
79094,22341
79098,22332
79101,22323
79103,22314
79105,22305
79105,22295
79105,22104
79105,22094
79103,22085
79101,22076
79098,22067
79094,22058
79089,22050
79083,22043
79077,22036
79070,22029
79062,22024
79054,22019
79046,22015
79037,22012
79028,22009
79019,22008
79009,22008
78650,22008
78640,22008
" /> 
<circle cx="79130" cy="20600" r="295.276" /> 
</g>
<g style="fill:#000000; fill-opacity:1.0; 
stroke:#000000; stroke-width:39.3701; stroke-opacity:1; 
stroke-linecap:round; stroke-linejoin:round;">
</g>
<g style="fill:#000000; fill-opacity:1.0; 
stroke:#000000; stroke-width:0; stroke-opacity:1; 
stroke-linecap:round; stroke-linejoin:round;">
<circle cx="70430" cy="27400" r="295.276" /> 
</g>
<g style="fill:#000000; fill-opacity:1.0; 
stroke:#000000; stroke-width:39.3701; stroke-opacity:1; 
stroke-linecap:round; stroke-linejoin:round;">
</g>
<g style="fill:#000000; fill-opacity:1.0; 
stroke:#000000; stroke-width:0; stroke-opacity:1; 
stroke-linecap:round; stroke-linejoin:round;">
<circle cx="70430" cy="20600" r="295.276" /> 
</g>
<g style="fill:#000000; fill-opacity:1.0; 
stroke:#000000; stroke-width:39.3701; stroke-opacity:1; 
stroke-linecap:round; stroke-linejoin:round;">
</g>
<g style="fill:#000000; fill-opacity:1.0; 
stroke:#000000; stroke-width:0; stroke-opacity:1; 
stroke-linecap:round; stroke-linejoin:round;">
<circle cx="79130" cy="27400" r="295.276" /> 
</g>
<g style="fill:#000000; fill-opacity:1.0; 
stroke:#000000; stroke-width:39.3701; stroke-opacity:1; 
stroke-linecap:round; stroke-linejoin:round;">
</g>
<g style="fill:#000000; fill-opacity:1.0; 
stroke:#000000; stroke-width:0; stroke-opacity:1; 
stroke-linecap:round; stroke-linejoin:round;">
<circle cx="76430" cy="27500" r="295.276" /> 
</g>
<g style="fill:#000000; fill-opacity:1.0; 
stroke:#000000; stroke-width:39.3701; stroke-opacity:1; 
stroke-linecap:round; stroke-linejoin:round;">
</g>
<g style="fill:#000000; fill-opacity:1.0; 
stroke:#000000; stroke-width:0; stroke-opacity:1; 
stroke-linecap:round; stroke-linejoin:round;">
<circle cx="78430" cy="20700" r="295.276" /> 
</g>
<g style="fill:#000000; fill-opacity:1.0; 
stroke:#000000; stroke-width:39.3701; stroke-opacity:1; 
stroke-linecap:round; stroke-linejoin:round;">
</g>
<g style="fill:#000000; fill-opacity:1.0; 
stroke:#000000; stroke-width:0; stroke-opacity:1; 
stroke-linecap:round; stroke-linejoin:round;">
<circle cx="76130" cy="21500" r="196.85" /> 
</g>
<g style="fill:#000000; fill-opacity:1.0; 
stroke:#000000; stroke-width:39.3701; stroke-opacity:1; 
stroke-linecap:round; stroke-linejoin:round;">
</g> 
</svg>
